<svg width="20.000000" height="20.000000" viewBox="0 0 20 20" fill="none" xmlns="http://www.w3.org/2000/svg" xmlns:xlink="http://www.w3.org/1999/xlink">
	<desc>
			Created with Pixso.
	</desc>
	<defs/>
	<path id="Vector" d="M9.5 -0.84C10.87 -0.84 12.18 -0.29 13.15 0.67C14.12 1.64 14.66 2.96 14.66 4.33C14.66 5.7 14.12 7.01 13.15 7.98C12.18 8.95 10.87 9.49 9.5 9.49C8.12 9.49 6.81 8.95 5.84 7.98C4.87 7.01 4.33 5.7 4.33 4.33C4.33 2.96 4.87 1.64 5.84 0.67C6.81 -0.29 8.12 -0.84 9.5 -0.84ZM9.5 12.08C15.2 12.08 19.83 14.39 19.83 17.25L19.83 19.83L-0.84 19.83L-0.84 17.25C-0.84 14.39 3.79 12.08 9.5 12.08Z" fill="#F8F8F8" fill-opacity="0.800000" fill-rule="nonzero"/>
</svg>
