<svg width="28.000000" height="28.000000" viewBox="0 0 28 28" fill="none" xmlns="http://www.w3.org/2000/svg" xmlns:xlink="http://www.w3.org/1999/xlink">
	<desc>
			Created with Pixso.
	</desc>
	<defs/>
	<path id="Vector" d="M3.5 28C2.53 28 1.71 27.68 1.02 27.05C0.34 26.43 -0.01 25.67 0 24.8L0 10.4C0 9.89 0.12 9.41 0.37 8.95C0.62 8.5 0.96 8.13 1.4 7.84L11.9 0.64C12.22 0.42 12.55 0.26 12.9 0.16C13.25 0.05 13.62 0 14 0C14.37 0 14.74 0.05 15.09 0.16C15.44 0.26 15.77 0.42 16.1 0.64L26.6 7.84C27.03 8.13 27.38 8.5 27.62 8.95C27.87 9.41 28 9.89 28 10.4L28 24.8C28 25.68 27.65 26.43 26.97 27.06C26.28 27.68 25.46 28 24.5 28L17.5 28L17.5 16.79L10.5 16.79L10.5 28L3.5 28Z" fill="#F8F8F8" fill-opacity="1.000000" fill-rule="nonzero"/>
</svg>
