<svg width="37.000000" height="33.000000" viewBox="0 0 37 33" fill="none" xmlns="http://www.w3.org/2000/svg" xmlns:xlink="http://www.w3.org/1999/xlink">
	<desc>
			Created with Pixso.
	</desc>
	<defs/>
	<path id="Vector" d="M36.25 32.5L25.96 23.35M9.77 26.88C7.9 26.19 6.2 25.18 4.76 23.91C3.33 22.63 2.19 21.12 1.42 19.46C0.64 17.79 0.25 16.01 0.25 14.21C0.25 12.41 0.64 10.62 1.42 8.96C2.19 7.3 3.33 5.79 4.76 4.51C6.2 3.24 7.9 2.23 9.77 1.54C11.64 0.85 13.65 0.5 15.67 0.5C19.77 0.5 23.69 1.94 26.58 4.51C29.48 7.08 31.1 10.57 31.1 14.21C31.1 17.85 29.48 21.33 26.58 23.91C23.69 26.48 19.77 27.92 15.67 27.92C13.65 27.92 11.64 27.57 9.77 26.88Z" stroke="#FFFFFF" stroke-opacity="1.000000" stroke-width="1.000000"/>
</svg>
