<svg width="28.000000" height="35.000000" viewBox="0 0 28 35" fill="none" xmlns="http://www.w3.org/2000/svg" xmlns:xlink="http://www.w3.org/1999/xlink">
	<desc>
			Created with Pixso.
	</desc>
	<defs/>
	<path id="Vector" d="M-0.17 28.95L-0.17 25.54L3.25 25.54L3.25 13.58C3.25 11.22 3.96 9.12 5.38 7.28C6.8 5.44 8.65 4.24 10.93 3.67L10.93 2.47C10.93 1.76 11.18 1.16 11.68 0.66C12.18 0.16 12.78 -0.09 13.5 -0.09C14.21 -0.09 14.81 0.16 15.31 0.66C15.81 1.16 16.06 1.76 16.06 2.47L16.06 3.67C18.34 4.24 20.19 5.44 21.61 7.28C23.03 9.12 23.75 11.22 23.75 13.58L23.75 25.54L27.16 25.54L27.16 28.95L-0.17 28.95ZM13.5 34.08C12.56 34.08 11.75 33.74 11.08 33.07C10.41 32.4 10.08 31.6 10.08 30.66L16.91 30.66C16.91 31.6 16.58 32.41 15.91 33.08C15.24 33.75 14.43 34.08 13.5 34.08ZM6.66 25.54L20.33 25.54L20.33 13.58C20.33 11.7 19.66 10.09 18.32 8.75C16.98 7.41 15.37 6.75 13.5 6.75C11.62 6.75 10.01 7.41 8.67 8.75C7.33 10.09 6.66 11.7 6.66 13.58L6.66 25.54Z" fill="#F8F8F8" fill-opacity="1.000000" fill-rule="nonzero"/>
</svg>
