<svg width="26.000000" height="28.000000" viewBox="0 0 26 28" fill="none" xmlns="http://www.w3.org/2000/svg" xmlns:xlink="http://www.w3.org/1999/xlink">
	<desc>
			Created with Pixso.
	</desc>
	<defs/>
	<path id="Vector" d="M9.72 1.36C9.87 0.97 10.13 0.63 10.48 0.4C10.82 0.16 11.23 0.03 11.65 0.03L13.34 0.03C13.76 0.03 14.17 0.16 14.51 0.4C14.86 0.63 15.12 0.97 15.27 1.36L16.16 3.66L19.19 5.4L21.63 5.02C22.04 4.97 22.45 5.03 22.82 5.22C23.19 5.4 23.5 5.68 23.7 6.04L24.53 7.49C24.74 7.85 24.84 8.27 24.81 8.68C24.78 9.1 24.63 9.5 24.36 9.83L22.85 11.76L22.85 15.24L24.41 17.16C24.67 17.49 24.82 17.89 24.85 18.31C24.88 18.72 24.78 19.14 24.57 19.5L23.74 20.95C23.54 21.31 23.23 21.59 22.86 21.77C22.49 21.96 22.08 22.02 21.67 21.97L19.23 21.59L16.2 23.33L15.31 25.63C15.16 26.02 14.9 26.36 14.55 26.59C14.21 26.83 13.8 26.96 13.39 26.96L11.65 26.96C11.23 26.96 10.82 26.83 10.48 26.59C10.13 26.36 9.87 26.02 9.72 25.63L8.83 23.33L5.8 21.59L3.36 21.97C2.95 22.02 2.54 21.96 2.17 21.77C1.8 21.59 1.49 21.31 1.29 20.95L0.46 19.5C0.25 19.14 0.15 18.72 0.18 18.31C0.21 17.89 0.36 17.49 0.63 17.16L2.14 15.24L2.14 11.76L0.58 9.83C0.32 9.5 0.17 9.1 0.14 8.68C0.11 8.27 0.21 7.85 0.42 7.49L1.25 6.04C1.45 5.68 1.76 5.4 2.13 5.22C2.5 5.03 2.91 4.97 3.32 5.02L5.76 5.4L8.83 3.66L9.72 1.36ZM9.05 15.8C9.51 16.48 10.15 17.01 10.91 17.32C11.67 17.64 12.5 17.72 13.3 17.56C14.11 17.4 14.85 17 15.42 16.42C16 15.85 16.4 15.11 16.56 14.3C16.72 13.5 16.64 12.67 16.32 11.91C16.01 11.15 15.48 10.51 14.8 10.05C14.12 9.6 13.31 9.35 12.5 9.35C11.4 9.35 10.34 9.79 9.57 10.57C8.79 11.34 8.35 12.4 8.35 13.5C8.35 14.31 8.6 15.12 9.05 15.8Z" stroke="#F8F8F8" stroke-opacity="1.000000" stroke-width="1.000000" stroke-linejoin="round"/>
</svg>
