<svg width="23.000000" height="27.000000" viewBox="0 0 23 27" fill="none" xmlns="http://www.w3.org/2000/svg" xmlns:xlink="http://www.w3.org/1999/xlink">
	<desc>
			Created with Pixso.
	</desc>
	<defs/>
	<path id="Vector" d="M2.24 5.03L3.13 8.6L2.24 12.15L5.56 14.07L7.58 17.18L11.38 16.35L15.18 17.18L17.2 14.07L20.52 12.15L19.63 8.6L20.52 5.03L17.22 3.11L15.18 0L11.38 0.85L7.6 0.01L5.54 3.11L2.24 5.03ZM11.4 14.86C9.65 14.86 7.97 14.21 6.73 13.04C5.49 11.88 4.8 10.3 4.8 8.66C4.8 7.02 5.49 5.44 6.73 4.28C7.97 3.11 9.65 2.46 11.4 2.46C15.03 2.46 17.98 5.23 17.98 8.64C17.98 12.09 15.03 14.86 11.4 14.86ZM11.36 13.31C8.62 13.31 6.43 11.23 6.43 8.66C6.43 6.1 8.62 4.01 11.36 4.01C14.1 4.01 16.33 6.1 16.33 8.66C16.33 11.23 14.1 13.31 11.36 13.31ZM17.7 15.01L15.59 18.49L12.16 17.76L16.33 26.79L18.64 23.38L22.77 23.38L17.7 15.01ZM4.99 15.12L7.06 18.61L10.57 17.82L6.43 26.79L4.12 23.38L0 23.38L4.99 15.12Z" fill="#F8F8F8" fill-opacity="0.800000" fill-rule="nonzero"/>

</svg>
