<svg width="25.000000" height="25.000000" viewBox="0 0 25 25" fill="none" xmlns="http://www.w3.org/2000/svg" xmlns:xlink="http://www.w3.org/1999/xlink">
	<desc>
			Created with Pixso.
	</desc>
	<defs/>
	<path id="Vector" d="M6.04 9.66L8.81 12.43C9.03 12.66 9.34 12.79 9.66 12.79C9.98 12.79 10.29 12.66 10.52 12.43L12.43 10.52C12.66 10.29 12.97 10.16 13.29 10.16C13.61 10.16 13.91 10.29 14.14 10.52L18.12 14.5M15.1 14.5L18.12 14.5L18.12 " stroke="#F8F8F8" stroke-opacity="1.000000" stroke-width="1.500000" stroke-linejoin="round"/>
	<path id="Vector" d="M20.54 7.25C18.53 7.25 16.91 5.62 16.91 3.62C16.91 1.62 18.53 0 20.54 0C22.54 0 24.16 1.62 24.16 3.62C24.16 5.62 22.54 7.25 20.54 7.25Z" stroke="#F8F8F8" stroke-opacity="1.000000" stroke-width="1.500000"/>
	<path id="Vector" d="M24.16 10.27L24.16 12.08C24.16 17.77 24.16 20.62 22.39 22.39C20.62 24.16 17.77 24.16 12.08 24.16C6.38 24.16 3.53 24.16 1.76 22.39C0 20.62 0 17.77 0 12.08C0 10.72 0 9.51 0.02 8.45M13.89 0L12.08 0C6.38 0 3.53 0 1.76 1.76C1.23 2.3 0.86 2.93 0.6 " stroke="#F8F8F8" stroke-opacity="1.000000" stroke-width="1.500000"/>
</svg>
