<svg width="64.000000" height="64.000000" viewBox="0 0 64 64" fill="none" xmlns="http://www.w3.org/2000/svg" xmlns:xlink="http://www.w3.org/1999/xlink">
	<desc>
			Created with Pixso.
	</desc>
	<defs>
		<filter id="filter_2_1_dd" x="-0.500000" y="0.000000" width="64.000000" height="64.000000" filterUnits="userSpaceOnUse" color-interpolation-filters="sRGB">
			<feFlood flood-opacity="0" result="BackgroundImageFix"/>
			<feColorMatrix in="SourceAlpha" type="matrix" values="0 0 0 0 0 0 0 0 0 0 0 0 0 0 0 0 0 0 127 0" result="hardAlpha"/>
			<feOffset dx="0" dy="4"/>
			<feGaussianBlur stdDeviation="1.33333"/>
			<feComposite in2="hardAlpha" operator="out" k2="-1" k3="1"/>
			<feColorMatrix type="matrix" values="0 0 0 0 0 0 0 0 0 0 0 0 0 0 0 0 0 0 0.25 0"/>
			<feBlend mode="normal" in2="BackgroundImageFix" result="effect_dropShadow_1"/>
			<feBlend mode="normal" in="SourceGraphic" in2="effect_dropShadow_1" result="shape"/>
		</filter>
	</defs>
	<rect id="logo" width="55.000000" height="55.000000" transform="translate(4.000000 0.500000)" fill="#FFFFFF" fill-opacity="0"/>
	<g filter="url(#filter_2_1_dd)">
		<path id="Vector" d="M59 49.38C59 51 58.35 52.56 57.21 53.71C56.06 54.85 54.5 55.5 52.88 55.5L10.11 55.5C8.49 55.5 6.93 54.85 5.78 53.71C4.64 52.56 4 51 4 49.38L4 6.61C4 4.99 4.64 3.43 5.78 2.28C6.93 1.14 8.49 0.5 10.11 0.5L52.88 0.5C54.5 0.5 56.06 1.14 57.21 2.28C58.35 3.43 59 4.99 59 6.61L59 49.38Z" fill="#C33B3B" fill-opacity="1.000000" fill-rule="nonzero"/>
	</g>
	<path id="Vector" d="M57.21 53.71C56.06 54.85 54.5 55.5 52.88 55.5L10.11 55.5C8.49 55.5 6.93 54.85 5.78 53.71C4.64 52.56 4 51 4 49.38L4 6.61C4 4.99 4.64 3.43 5.78 2.28C6.93 1.14 8.49 0.5 10.11 0.5L52.88 0.5C54.5 0.5 56.06 1.14 57.21 2.28C58.35 3.43 59 4.99 59 6.61L59 49.38C59 51 58.35 52.56 57.21 53.71Z" stroke="#000000" stroke-opacity="1.000000" stroke-width="1.000000"/>
	<path id="Vector" d="M36.08 17.3C36.08 19.73 35.11 22.06 33.39 23.78C31.67 25.5 29.34 26.47 26.91 26.47C24.48 26.47 22.15 25.5 20.43 23.78C18.71 22.06 17.75 19.73 17.75 17.3C17.75 14.87 18.71 12.54 20.43 10.82C22.15 9.1 24.48 8.13 26.91 8.13C29.34 8.13 31.67 9.1 33.39 10.82C35.11 12.54 36.08 14.87 36.08 17.3ZM52.88 20.36C52.88 22.38 52.08 24.33 50.64 25.76C49.21 27.19 47.27 28 45.24 28C43.22 27.99 41.27 27.19 39.84 25.76C38.41 24.32 37.6 22.38 37.6 20.35C37.6 18.33 38.41 16.39 39.84 14.95C41.27 13.52 43.22 12.72 45.24 12.72C47.27 12.72 49.21 13.52 50.65 14.95C52.08 16.39 52.88 18.33 52.88 20.36Z" fill="#FFFFFF" fill-opacity="1.000000" fill-rule="nonzero"/>
	<path id="Vector" d="M49.83 31.05C49.83 29.43 49.18 27.88 48.04 26.73C46.89 25.58 45.34 24.94 43.72 24.94L26.91 24.94C25.29 24.94 23.74 25.58 22.59 26.73C21.44 27.88 20.8 29.43 20.8 31.05L11.63 24.94L10.11 24.94L10.11 44.8L11.63 44.8L20.8 38.69L20.8 41.75C20.8 43.37 21.44 44.92 22.59 46.07C23.74 47.21 25.29 47.86 26.91 47.86L43.72 47.86C45.34 47.86 46.89 47.21 48.04 46.07C49.18 44.92 49.83 43.37 49.83 41.75L49.83 31.05Z" fill="#FFFFFF" fill-opacity="1.000000" fill-rule="nonzero"/>
</svg>
