<svg width="18.000000" height="24.000000" viewBox="0 0 18 24" fill="none" xmlns="http://www.w3.org/2000/svg" xmlns:xlink="http://www.w3.org/1999/xlink">
	<desc>
			Created with Pixso.
	</desc>
	<defs/>
	<path id="Vector" d="M8.5 11.5L16.95 11.5M13.33 7.87L16.95 11.5L13.33 15.12M16.95 4.25L16.95 3.04C16.95 2.4 16.7 1.78 16.25 1.33C15.79 0.87 15.18 0.62 14.54 0.62L2.45 0.62C1.81 0.62 1.2 0.87 0.74 1.33C0.29 1.78 0.04 2.4 0.04 3.04L0.04 19.95C0.04 20.59 0.29 21.21 0.74 21.66C1.2 22.12 1.81 22.37 2.45 22.37L14.54 22.37C15.18 22.37 15.79 22.12 16.25 21.66C16.7 21.21 16.95 20.59 16.95 19.95L16.95 " stroke="#F8F8F8" stroke-opacity="1.000000" stroke-width="1.500000" stroke-linejoin="round"/>
</svg>
