<svg width="26.000000" height="25.000000" viewBox="0 0 26 25" fill="none" xmlns="http://www.w3.org/2000/svg" xmlns:xlink="http://www.w3.org/1999/xlink">
	<desc>
			Created with Pixso.
	</desc>
	<defs/>
	<path id="Vector" d="M21.74 4.85L18.43 0.57L23.18 -0.37L24.12 4.37L21.74 4.85ZM18.19 5.54L14.88 1.27L12.5 1.74L15.82 6.01L18.19 5.54ZM20.95 12.7C22.28 12.7 23.52 13.07 24.58 13.68L24.58 9.08L0.41 9.08L0.41 21.16C0.41 21.8 0.67 22.42 1.12 22.87C1.57 23.32 2.19 23.58 2.83 23.58L14.68 23.58C14.07 22.52 13.7 21.28 13.7 19.95C13.7 15.95 16.95 12.7 20.95 12.7ZM12.27 6.72L8.95 2.43L6.57 2.93L9.9 7.19L12.27 6.72ZM3.02 3.64L1.84 3.87C1.21 4 0.66 4.37 0.3 4.9C-0.05 5.43 -0.18 6.08 -0.06 6.71L0.41 9.08L6.33 7.91L3.02 3.64ZM22.16 18.75L22.16 15.12L19.75 15.12L19.75 18.75L16.12 18.75L16.12 21.16L19.75 21.16L19.75 24.79L22.16 24.79L22.16 21.16L25.79 21.16L25.79 18.75L22.16 18.75Z" fill="#F8F8F8" fill-opacity="0.800000" fill-rule="nonzero"/>
</svg>
