<svg width="20.000000" height="20.000000" viewBox="0 0 20 20" fill="none" xmlns="http://www.w3.org/2000/svg" xmlns:xlink="http://www.w3.org/1999/xlink">
	<g id="awards">
		<defs/>
		<path id="Vector" d="M2.24 5.03L3.13 8.6L2.24 12.15L5.56 14.07L7.58 17.18L11.38 16.35L15.18 17.18L17.2 14.07L20.52 12.15L19.63 8.6L20.52 5.03L17.22 3.11L15.18 0L11.38 0.85L7.6 0.01L5.54 3.11L2.24 5.03ZM11.4 14.86C9.65 14.86 7.97 14.21 6.73 13.04C5.49 11.88 4.8 10.3 4.8 8.66C4.8 7.02 5.49 5.44 6.73 4.28C7.97 3.11 9.65 2.46 11.4 2.46C15.03 2.46 17.98 5.23 17.98 8.64C17.98 12.09 15.03 14.86 11.4 14.86ZM11.36 13.31C8.62 13.31 6.43 11.23 6.43 8.66C6.43 6.1 8.62 4.01 11.36 4.01C14.1 4.01 16.33 6.1 16.33 8.66C16.33 11.23 14.1 13.31 11.36 13.31ZM17.7 15.01L15.59 18.49L12.16 17.76L16.33 26.79L18.64 23.38L22.77 23.38L17.7 15.01ZM4.99 15.12L7.06 18.61L10.57 17.82L6.43 26.79L4.12 23.38L0 23.38L4.99 15.12Z" fill="#F8F8F8" fill-opacity="0.800000" fill-rule="nonzero"/>
	</g>
	<g id="account">
		<path id="Vector" d="M9.5 -0.84C10.87 -0.84 12.18 -0.29 13.15 0.67C14.12 1.64 14.66 2.96 14.66 4.33C14.66 5.7 14.12 7.01 13.15 7.98C12.18 8.95 10.87 9.49 9.5 9.49C8.12 9.49 6.81 8.95 5.84 7.98C4.87 7.01 4.33 5.7 4.33 4.33C4.33 2.96 4.87 1.64 5.84 0.67C6.81 -0.29 8.12 -0.84 9.5 -0.84ZM9.5 12.08C15.2 12.08 19.83 14.39 19.83 17.25L19.83 19.83L-0.84 19.83L-0.84 17.25C-0.84 14.39 3.79 12.08 9.5 12.08Z" fill="#F8F8F8" fill-opacity="0.800000" fill-rule="nonzero"/>
	</g>
	<g id="categories">
		<defs/>
		<path id="Vector" d="M9.04 16L9.04 13.33L14.2 13.33L14.2 16L9.04 16ZM3.87 9.33L3.87 6.66L19.37 6.66L19.37 9.33L3.87 9.33ZM0 2.66L0 0L23.25 0L23.25 2.66L0 2.66Z" fill="#F8F8F8" fill-opacity="1.000000" fill-rule="nonzero"/>
	</g>
	<g id="discover">
		<desc>
			Created with Pixso.
		</desc>
		<defs/>
		<path id="Vector" d="M6.04 9.66L8.81 12.43C9.03 12.66 9.34 12.79 9.66 12.79C9.98 12.79 10.29 12.66 10.52 12.43L12.43 10.52C12.66 10.29 12.97 10.16 13.29 10.16C13.61 10.16 13.91 10.29 14.14 10.52L18.12 14.5M15.1 14.5L18.12 14.5L18.12 " stroke="#F8F8F8" stroke-opacity="1.000000" stroke-width="1.500000" stroke-linejoin="round"/>
		<path id="Vector" d="M20.54 7.25C18.53 7.25 16.91 5.62 16.91 3.62C16.91 1.62 18.53 0 20.54 0C22.54 0 24.16 1.62 24.16 3.62C24.16 5.62 22.54 7.25 20.54 7.25Z" stroke="#F8F8F8" stroke-opacity="1.000000" stroke-width="1.500000"/>
		<path id="Vector" d="M24.16 10.27L24.16 12.08C24.16 17.77 24.16 20.62 22.39 22.39C20.62 24.16 17.77 24.16 12.08 24.16C6.38 24.16 3.53 24.16 1.76 22.39C0 20.62 0 17.77 0 12.08C0 10.72 0 9.51 0.02 8.45M13.89 0L12.08 0C6.38 0 3.53 0 1.76 1.76C1.23 2.3 0.86 2.93 0.6 " stroke="#F8F8F8" stroke-opacity="1.000000" stroke-width="1.500000"/>
	</g>
	<g id="home">
		<!--<desc>
			Created with Pixso.
		</desc>
		<defs/>-->
		<path id="Vector" d="M3.5 28C2.53 28 1.71 27.68 1.02 27.05C0.34 26.43 -0.01 25.67 0 24.8L0 10.4C0 9.89 0.12 9.41 0.37 8.95C0.62 8.5 0.96 8.13 1.4 7.84L11.9 0.64C12.22 0.42 12.55 0.26 12.9 0.16C13.25 0.05 13.62 0 14 0C14.37 0 14.74 0.05 15.09 0.16C15.44 0.26 15.77 0.42 16.1 0.64L26.6 7.84C27.03 8.13 27.38 8.5 27.62 8.95C27.87 9.41 28 9.89 28 10.4L28 24.8C28 25.68 27.65 26.43 26.97 27.06C26.28 27.68 25.46 28 24.5 28L17.5 28L17.5 16.79L10.5 16.79L10.5 28L3.5 28Z" fill="#F8F8F8"  />

	</g>
	<g id="mainLogo">
		<desc>
			Created with Pixso.
		</desc>
		<defs>
			<filter id="filter_2_1_dd" x="-0.500000" y="0.000000" width="64.000000" height="64.000000" filterUnits="userSpaceOnUse" color-interpolation-filters="sRGB">
				<feFlood flood-opacity="0" result="BackgroundImageFix"/>
				<feColorMatrix in="SourceAlpha" type="matrix" values="0 0 0 0 0 0 0 0 0 0 0 0 0 0 0 0 0 0 127 0" result="hardAlpha"/>
				<feOffset dx="0" dy="4"/>
				<feGaussianBlur stdDeviation="1.33333"/>
				<feComposite in2="hardAlpha" operator="out" k2="-1" k3="1"/>
				<feColorMatrix type="matrix" values="0 0 0 0 0 0 0 0 0 0 0 0 0 0 0 0 0 0 0.25 0"/>
				<feBlend mode="normal" in2="BackgroundImageFix" result="effect_dropShadow_1"/>
				<feBlend mode="normal" in="SourceGraphic" in2="effect_dropShadow_1" result="shape"/>
			</filter>
		</defs>
		<rect id="logo" width="55.000000" height="55.000000" transform="translate(4.000000 0.500000)" fill="#FFFFFF" fill-opacity="0"/>
		<g filter="url(#filter_2_1_dd)">
			<path id="Vector" d="M59 49.38C59 51 58.35 52.56 57.21 53.71C56.06 54.85 54.5 55.5 52.88 55.5L10.11 55.5C8.49 55.5 6.93 54.85 5.78 53.71C4.64 52.56 4 51 4 49.38L4 6.61C4 4.99 4.64 3.43 5.78 2.28C6.93 1.14 8.49 0.5 10.11 0.5L52.88 0.5C54.5 0.5 56.06 1.14 57.21 2.28C58.35 3.43 59 4.99 59 6.61L59 49.38Z" fill="#C33B3B" fill-opacity="1.000000" fill-rule="nonzero"/>
		</g>
		<path id="Vector" d="M57.21 53.71C56.06 54.85 54.5 55.5 52.88 55.5L10.11 55.5C8.49 55.5 6.93 54.85 5.78 53.71C4.64 52.56 4 51 4 49.38L4 6.61C4 4.99 4.64 3.43 5.78 2.28C6.93 1.14 8.49 0.5 10.11 0.5L52.88 0.5C54.5 0.5 56.06 1.14 57.21 2.28C58.35 3.43 59 4.99 59 6.61L59 49.38C59 51 58.35 52.56 57.21 53.71Z" stroke="#000000" stroke-opacity="1.000000" stroke-width="1.000000"/>
		<path id="Vector" d="M36.08 17.3C36.08 19.73 35.11 22.06 33.39 23.78C31.67 25.5 29.34 26.47 26.91 26.47C24.48 26.47 22.15 25.5 20.43 23.78C18.71 22.06 17.75 19.73 17.75 17.3C17.75 14.87 18.71 12.54 20.43 10.82C22.15 9.1 24.48 8.13 26.91 8.13C29.34 8.13 31.67 9.1 33.39 10.82C35.11 12.54 36.08 14.87 36.08 17.3ZM52.88 20.36C52.88 22.38 52.08 24.33 50.64 25.76C49.21 27.19 47.27 28 45.24 28C43.22 27.99 41.27 27.19 39.84 25.76C38.41 24.32 37.6 22.38 37.6 20.35C37.6 18.33 38.41 16.39 39.84 14.95C41.27 13.52 43.22 12.72 45.24 12.72C47.27 12.72 49.21 13.52 50.65 14.95C52.08 16.39 52.88 18.33 52.88 20.36Z" fill="#FFFFFF" fill-opacity="1.000000" fill-rule="nonzero"/>
		<path id="Vector" d="M49.83 31.05C49.83 29.43 49.18 27.88 48.04 26.73C46.89 25.58 45.34 24.94 43.72 24.94L26.91 24.94C25.29 24.94 23.74 25.58 22.59 26.73C21.44 27.88 20.8 29.43 20.8 31.05L11.63 24.94L10.11 24.94L10.11 44.8L11.63 44.8L20.8 38.69L20.8 41.75C20.8 43.37 21.44 44.92 22.59 46.07C23.74 47.21 25.29 47.86 26.91 47.86L43.72 47.86C45.34 47.86 46.89 47.21 48.04 46.07C49.18 44.92 49.83 43.37 49.83 41.75L49.83 31.05Z" fill="#FFFFFF" fill-opacity="1.000000" fill-rule="nonzero"/>


	</g>
	<g id="logout">
		<desc>
			Created with Pixso.
		</desc>
		<defs/>
		<path id="Vector" d="M8.5 11.5L16.95 11.5M13.33 7.87L16.95 11.5L13.33 15.12M16.95 4.25L16.95 3.04C16.95 2.4 16.7 1.78 16.25 1.33C15.79 0.87 15.18 0.62 14.54 0.62L2.45 0.62C1.81 0.62 1.2 0.87 0.74 1.33C0.29 1.78 0.04 2.4 0.04 3.04L0.04 19.95C0.04 20.59 0.29 21.21 0.74 21.66C1.2 22.12 1.81 22.37 2.45 22.37L14.54 22.37C15.18 22.37 15.79 22.12 16.25 21.66C16.7 21.21 16.95 20.59 16.95 19.95L16.95 " stroke="#F8F8F8" stroke-opacity="1.000000" stroke-width="1.500000" stroke-linejoin="round"/>
	</g>
	<g id="notification">
		<desc>
			Created with Pixso.
		</desc>
		<defs/>
		<path id="Vector" d="M-0.17 28.95L-0.17 25.54L3.25 25.54L3.25 13.58C3.25 11.22 3.96 9.12 5.38 7.28C6.8 5.44 8.65 4.24 10.93 3.67L10.93 2.47C10.93 1.76 11.18 1.16 11.68 0.66C12.18 0.16 12.78 -0.09 13.5 -0.09C14.21 -0.09 14.81 0.16 15.31 0.66C15.81 1.16 16.06 1.76 16.06 2.47L16.06 3.67C18.34 4.24 20.19 5.44 21.61 7.28C23.03 9.12 23.75 11.22 23.75 13.58L23.75 25.54L27.16 25.54L27.16 28.95L-0.17 28.95ZM13.5 34.08C12.56 34.08 11.75 33.74 11.08 33.07C10.41 32.4 10.08 31.6 10.08 30.66L16.91 30.66C16.91 31.6 16.58 32.41 15.91 33.08C15.24 33.75 14.43 34.08 13.5 34.08ZM6.66 25.54L20.33 25.54L20.33 13.58C20.33 11.7 19.66 10.09 18.32 8.75C16.98 7.41 15.37 6.75 13.5 6.75C11.62 6.75 10.01 7.41 8.67 8.75C7.33 10.09 6.66 11.7 6.66 13.58L6.66 25.54Z" fill="#F8F8F8" fill-opacity="1.000000" fill-rule="nonzero"/>
	</g>
	<g id="settings">
		<desc>
			Created with Pixso.
		</desc>
		<defs/>
		<path id="Vector" d="M9.72 1.36C9.87 0.97 10.13 0.63 10.48 0.4C10.82 0.16 11.23 0.03 11.65 0.03L13.34 0.03C13.76 0.03 14.17 0.16 14.51 0.4C14.86 0.63 15.12 0.97 15.27 1.36L16.16 3.66L19.19 5.4L21.63 5.02C22.04 4.97 22.45 5.03 22.82 5.22C23.19 5.4 23.5 5.68 23.7 6.04L24.53 7.49C24.74 7.85 24.84 8.27 24.81 8.68C24.78 9.1 24.63 9.5 24.36 9.83L22.85 11.76L22.85 15.24L24.41 17.16C24.67 17.49 24.82 17.89 24.85 18.31C24.88 18.72 24.78 19.14 24.57 19.5L23.74 20.95C23.54 21.31 23.23 21.59 22.86 21.77C22.49 21.96 22.08 22.02 21.67 21.97L19.23 21.59L16.2 23.33L15.31 25.63C15.16 26.02 14.9 26.36 14.55 26.59C14.21 26.83 13.8 26.96 13.39 26.96L11.65 26.96C11.23 26.96 10.82 26.83 10.48 26.59C10.13 26.36 9.87 26.02 9.72 25.63L8.83 23.33L5.8 21.59L3.36 21.97C2.95 22.02 2.54 21.96 2.17 21.77C1.8 21.59 1.49 21.31 1.29 20.95L0.46 19.5C0.25 19.14 0.15 18.72 0.18 18.31C0.21 17.89 0.36 17.49 0.63 17.16L2.14 15.24L2.14 11.76L0.58 9.83C0.32 9.5 0.17 9.1 0.14 8.68C0.11 8.27 0.21 7.85 0.42 7.49L1.25 6.04C1.45 5.68 1.76 5.4 2.13 5.22C2.5 5.03 2.91 4.97 3.32 5.02L5.76 5.4L8.83 3.66L9.72 1.36ZM9.05 15.8C9.51 16.48 10.15 17.01 10.91 17.32C11.67 17.64 12.5 17.72 13.3 17.56C14.11 17.4 14.85 17 15.42 16.42C16 15.85 16.4 15.11 16.56 14.3C16.72 13.5 16.64 12.67 16.32 11.91C16.01 11.15 15.48 10.51 14.8 10.05C14.12 9.6 13.31 9.35 12.5 9.35C11.4 9.35 10.34 9.79 9.57 10.57C8.79 11.34 8.35 12.4 8.35 13.5C8.35 14.31 8.6 15.12 9.05 15.8Z" stroke="#F8F8F8" stroke-opacity="1.000000" stroke-width="1.000000" stroke-linejoin="round"/>

	</g>
	<g id="watchList">
		<desc>
		Created with Pixso.
	</desc>
		<defs/>
		<path id="Vector" d="M21.74 4.85L18.43 0.57L23.18 -0.37L24.12 4.37L21.74 4.85ZM18.19 5.54L14.88 1.27L12.5 1.74L15.82 6.01L18.19 5.54ZM20.95 12.7C22.28 12.7 23.52 13.07 24.58 13.68L24.58 9.08L0.41 9.08L0.41 21.16C0.41 21.8 0.67 22.42 1.12 22.87C1.57 23.32 2.19 23.58 2.83 23.58L14.68 23.58C14.07 22.52 13.7 21.28 13.7 19.95C13.7 15.95 16.95 12.7 20.95 12.7ZM12.27 6.72L8.95 2.43L6.57 2.93L9.9 7.19L12.27 6.72ZM3.02 3.64L1.84 3.87C1.21 4 0.66 4.37 0.3 4.9C-0.05 5.43 -0.18 6.08 -0.06 6.71L0.41 9.08L6.33 7.91L3.02 3.64ZM22.16 18.75L22.16 15.12L19.75 15.12L19.75 18.75L16.12 18.75L16.12 21.16L19.75 21.16L19.75 24.79L22.16 24.79L22.16 21.16L25.79 21.16L25.79 18.75L22.16 18.75Z" fill="#F8F8F8" fill-opacity="0.800000" fill-rule="nonzero"/>
	</g>
	<g id="sprite">
		<symbol fill="inherit" xmlns="http://www.w3.org/2000/svg" viewBox="0 0 13 13" id="search">
			<g clip-path="url(#clip0_9_19)">
				<path d="M12.8416 12.0758L9.60783 8.84204C10.4886 7.76481 10.9216 6.39027 10.8173 5.00273C10.7131 3.61519 10.0795 2.3208 9.04763 1.3873C8.01577 0.453803 6.66459 -0.0473866 5.27357 -0.0126007C3.88255 0.0221852 2.55811 0.590285 1.57421 1.57419C0.5903 2.5581 0.0222005 3.88254 -0.0125854 5.27356C-0.0473713 6.66458 0.453818 8.01576 1.38732 9.04761C2.32081 10.0795 3.6152 10.7131 5.00274 10.8173C6.39029 10.9216 7.76483 10.4886 8.84205 9.60782L12.0758 12.8416C12.1791 12.9339 12.3139 12.9832 12.4524 12.9793C12.5909 12.9754 12.7227 12.9186 12.8207 12.8207C12.9187 12.7227 12.9754 12.5909 12.9793 12.4524C12.9832 12.3139 12.9339 12.1791 12.8416 12.0758ZM5.41737 9.75001C4.55987 9.75041 3.72153 9.49647 3.00838 9.02033C2.29523 8.54418 1.73933 7.86721 1.411 7.07507C1.08266 6.28293 0.996649 5.4112 1.16384 4.57016C1.33103 3.72913 1.74391 2.95657 2.35025 2.35023C2.95659 1.74389 3.72914 1.33101 4.57018 1.16382C5.41121 0.996633 6.28294 1.08265 7.07509 1.41098C7.86723 1.73931 8.5442 2.29522 9.02034 3.00836C9.49649 3.72151 9.75042 4.55986 9.75002 5.41735C9.74841 6.56595 9.29142 7.66704 8.47924 8.47922C7.66705 9.2914 6.56596 9.74839 5.41737 9.75001Z"></path>
			</g>
			<defs>
				<clipPath id="clip0_9_19">
					<rect width="13" height="13" fill="white"></rect>
				</clipPath>
			</defs>
		</symbol>

		<symbol fill="inherit" xmlns="http://www.w3.org/2000/svg" viewBox="0 0 24 24" id="bag">
			<path d="M20.94 18.06L19.26 8.31C19.1453 7.47997 18.7404 6.71734 18.1172 6.15725C17.4939 5.59716 16.6926 5.27576 15.855 5.25H15.75C15.75 4.25544 15.3549 3.30161 14.6517 2.59835C13.9484 1.89509 12.9946 1.5 12 1.5C11.0055 1.5 10.0516 1.89509 9.34837 2.59835C8.64511 3.30161 8.25002 4.25544 8.25002 5.25H8.14502C7.30749 5.27576 6.50611 5.59716 5.88287 6.15725C5.25963 6.71734 4.85477 7.47997 4.74002 8.31L3.06002 18.06C2.95683 18.6256 2.97926 19.2071 3.12572 19.7631C3.27217 20.3191 3.53907 20.8361 3.90752 21.2775C4.21796 21.6565 4.60803 21.9625 5.05003 22.1738C5.49204 22.385 5.97513 22.4964 6.46502 22.5H17.535C18.0249 22.4964 18.508 22.385 18.95 22.1738C19.392 21.9625 19.7821 21.6565 20.0925 21.2775C20.461 20.8361 20.7279 20.3191 20.8743 19.7631C21.0208 19.2071 21.0432 18.6256 20.94 18.06ZM12 3C12.5968 3 13.1691 3.23705 13.591 3.65901C14.013 4.08097 14.25 4.65326 14.25 5.25H9.75002C9.75002 4.65326 9.98707 4.08097 10.409 3.65901C10.831 3.23705 11.4033 3 12 3ZM18.945 20.31C18.7755 20.522 18.5612 20.6938 18.3174 20.8131C18.0736 20.9325 17.8064 20.9963 17.535 21H6.46502C6.19362 20.9963 5.92643 20.9325 5.68263 20.8131C5.43883 20.6938 5.2245 20.522 5.05502 20.31C4.82646 20.0365 4.66149 19.7157 4.57199 19.3707C4.4825 19.0257 4.47073 18.6651 4.53752 18.315L6.21752 8.565C6.27335 8.08382 6.49737 7.63782 6.85004 7.30574C7.20271 6.97365 7.66135 6.77683 8.14502 6.75H15.855C16.3387 6.77683 16.7973 6.97365 17.15 7.30574C17.5027 7.63782 17.7267 8.08382 17.7825 8.565L19.4625 18.315C19.5293 18.6651 19.5175 19.0257 19.428 19.3707C19.3386 19.7157 19.1736 20.0365 18.945 20.31Z"></path>
		</symbol>

		<symbol fill="inherit" xmlns="http://www.w3.org/2000/svg" viewBox="0 0 24 24" id="heart">
			<path d="M3 12C0.75 9 1.5 4.5 5.25 3C9 1.5 11.25 4.5 12 6C12.75 4.5 15.75 1.5 19.5 3C23.25 4.5 23.25 9 21 12C18.75 15 12 21 12 21C12 21 5.25 15 3 12Z" stroke-width="2" stroke-linecap="round" stroke-linejoin="round"></path>
		</symbol>

		<symbol fill="inherit" xmlns="http://www.w3.org/2000/svg" viewBox="0 0 25 25" id="instagram">
			<path d="M15.3645 23.4376H9.11454C3.45829 23.4376 1.04163 21.0209 1.04163 15.3647V9.11467C1.04163 3.45842 3.45829 1.04175 9.11454 1.04175H15.3645C21.0208 1.04175 23.4375 3.45842 23.4375 9.11467V15.3647C23.4375 21.0209 21.0208 23.4376 15.3645 23.4376ZM9.11454 2.60425C4.31246 2.60425 2.60413 4.31258 2.60413 9.11467V15.3647C2.60413 20.1667 4.31246 21.8751 9.11454 21.8751H15.3645C20.1666 21.8751 21.875 20.1667 21.875 15.3647V9.11467C21.875 4.31258 20.1666 2.60425 15.3645 2.60425H9.11454Z"></path>
			<path d="M12.5 16.9271C11.3267 16.9243 10.2022 16.457 9.37258 15.6274C8.54293 14.7977 8.07563 13.6733 8.07288 12.5C8.07563 11.3267 8.54293 10.2023 9.37258 9.37262C10.2022 8.54298 11.3267 8.07567 12.5 8.07292C13.6732 8.07567 14.7977 8.54298 15.6273 9.37262C16.457 10.2023 16.9243 11.3267 16.927 12.5C16.9243 13.6733 16.457 14.7977 15.6273 15.6274C14.7977 16.457 13.6732 16.9243 12.5 16.9271V16.9271ZM12.5 9.63542C10.9166 9.63542 9.63538 10.9167 9.63538 12.5C9.63538 14.0833 10.9166 15.3646 12.5 15.3646C14.0833 15.3646 15.3645 14.0833 15.3645 12.5C15.3645 10.9167 14.0833 9.63542 12.5 9.63542ZM17.7083 7.8125C17.5729 7.8125 17.4375 7.78125 17.3125 7.72917C17.1875 7.67709 17.0729 7.60417 16.9687 7.51042C16.875 7.40625 16.7916 7.29167 16.7395 7.16667C16.6894 7.04083 16.6646 6.9063 16.6666 6.77084C16.6666 6.63542 16.6875 6.5 16.7395 6.375C16.802 6.23959 16.875 6.13542 16.9687 6.03125C17.0208 5.98959 17.0729 5.9375 17.125 5.90625C17.1875 5.86459 17.25 5.83334 17.3125 5.8125C17.5023 5.73356 17.7112 5.7122 17.9131 5.7511C18.115 5.79 18.3009 5.88743 18.4479 6.03125C18.5416 6.13542 18.6145 6.23959 18.6666 6.375C18.7187 6.5 18.75 6.63542 18.75 6.77084C18.75 6.90625 18.7187 7.04167 18.6666 7.16667C18.6145 7.29167 18.5416 7.40625 18.4479 7.51042C18.3437 7.60417 18.2291 7.67709 18.1041 7.72917C17.9791 7.78125 17.8437 7.8125 17.7083 7.8125Z"></path>
		</symbol>

		<symbol fill="inherit" xmlns="http://www.w3.org/2000/svg" viewBox="0 0 25 25" id="youtube">
			<path d="M17.7084 21.6147H7.29171C3.70837 21.6147 1.30212 19.2084 1.30212 15.6251V9.37508C1.30212 5.79175 3.70837 3.3855 7.29171 3.3855H17.7084C21.2917 3.3855 23.698 5.79175 23.698 9.37508V15.6251C23.698 19.2084 21.2917 21.6147 17.7084 21.6147ZM7.29171 4.948C4.60421 4.948 2.86462 6.68758 2.86462 9.37508V15.6251C2.86462 18.3126 4.60421 20.0522 7.29171 20.0522H17.7084C20.3959 20.0522 22.1355 18.3126 22.1355 15.6251V9.37508C22.1355 6.68758 20.3959 4.948 17.7084 4.948H7.29171Z"></path>
			<path d="M11.0312 16.1771C10.7292 16.1771 10.4375 16.1042 10.1771 15.9584C9.57292 15.6146 9.21875 14.9167 9.21875 14.0521V10.9688C9.21875 10.1042 9.5625 9.40628 10.1771 9.06253C10.7813 8.71878 11.5625 8.78128 12.3021 9.22919L14.875 10.7709C15.5833 11.1979 15.9896 11.8334 15.9896 12.5104C15.9896 13.1875 15.5833 13.8229 14.875 14.25L12.3021 15.7917C11.875 16.0417 11.4375 16.1771 11.0312 16.1771V16.1771ZM11.0312 10.3854C10.9988 10.385 10.9667 10.3921 10.9375 10.4063C10.8646 10.4479 10.7813 10.6354 10.7813 10.9584V14.0417C10.7813 14.3542 10.8646 14.5417 10.9375 14.5938C11.0208 14.6354 11.2187 14.6146 11.4896 14.4479L14.0625 12.9063C14.3229 12.75 14.4167 12.5938 14.4167 12.5C14.4167 12.4063 14.3229 12.2604 14.0625 12.0938L11.4896 10.5521C11.3021 10.4375 11.1354 10.3854 11.0312 10.3854V10.3854Z"></path>
		</symbol>

		<symbol fill="inherit" xmlns="http://www.w3.org/2000/svg" viewBox="0 0 25 25" id="facebook">
			<path d="M15.3646 23.6979H10.6771V16.1458H9.6875C9.08333 16.1458 8.59375 15.6562 8.59375 15.0521V13.0729C8.59375 12.4687 9.08333 11.9792 9.6875 11.9792H10.6771V9.375C10.6771 7.21875 12.4271 5.46875 14.5833 5.46875H17.3958C18 5.46875 18.4896 5.95833 18.4896 6.5625V9.0625C18.4896 9.66667 18 10.1562 17.3958 10.1562H15.3646V11.9792H17.3229C17.4844 11.9783 17.6441 12.0135 17.7904 12.082C17.9366 12.1506 18.0658 12.2508 18.1685 12.3755C18.2712 12.5001 18.3449 12.6461 18.3842 12.8027C18.4236 12.9594 18.4275 13.1229 18.3958 13.2812L18 15.2604C17.8958 15.7708 17.4479 16.1354 16.9271 16.1354H15.3646V23.6979ZM12.2396 22.1354H13.8021V14.5833H16.5521L16.7604 13.5417H13.8125V9.6875C13.8125 9.08333 14.3021 8.59375 14.9063 8.59375H16.9375V7.03125H14.5833C13.2917 7.03125 12.2396 8.08333 12.2396 9.375V13.5417H10.1562V14.5833H12.2396V22.1354Z"></path>
			<path d="M15.625 23.6978H9.37504C3.71879 23.6978 1.30212 21.2812 1.30212 15.6249V9.37492C1.30212 3.71867 3.71879 1.302 9.37504 1.302H15.625C21.2813 1.302 23.698 3.71867 23.698 9.37492V15.6249C23.698 21.2812 21.2813 23.6978 15.625 23.6978ZM9.37504 2.8645C4.57296 2.8645 2.86462 4.57284 2.86462 9.37492V15.6249C2.86462 20.427 4.57296 22.1353 9.37504 22.1353H15.625C20.4271 22.1353 22.1355 20.427 22.1355 15.6249V9.37492C22.1355 4.57284 20.4271 2.8645 15.625 2.8645H9.37504Z"></path>
		</symbol>

		<symbol fill="inherit" xmlns="http://www.w3.org/2000/svg" viewBox="0 0 20 20" id="close">
			<path d="M4.375 4.375L15.625 15.625" stroke-width="2" stroke-linecap="round" stroke-linejoin="round"></path>
			<path d="M4.375 15.625L15.625 4.375" stroke-width="2" stroke-linecap="round" stroke-linejoin="round"></path>
		</symbol>

		<symbol fill="inherit" xmlns="http://www.w3.org/2000/svg" viewBox="0 0 15 15" id="plus">
			<g clip-path="url(#clip0_103_316)">
				<path d="M13.125 6.5625H8.4375V1.875C8.4375 1.3575 8.0175 0.9375 7.5 0.9375C6.9825 0.9375 6.5625 1.3575 6.5625 1.875V6.5625H1.875C1.3575 6.5625 0.9375 6.9825 0.9375 7.5C0.9375 8.0175 1.3575 8.4375 1.875 8.4375H6.5625V13.125C6.5625 13.6425 6.9825 14.0625 7.5 14.0625C8.0175 14.0625 8.4375 13.6425 8.4375 13.125V8.4375H13.125C13.6425 8.4375 14.0625 8.0175 14.0625 7.5C14.0625 6.9825 13.6425 6.5625 13.125 6.5625Z"></path>
			</g>
			<defs>
				<clipPath id="clip0_103_316">
					<rect width="15" height="15" fill="white"></rect>
				</clipPath>
			</defs>
		</symbol>

		<symbol fill="inherit" xmlns="http://www.w3.org/2000/svg" viewBox="0 0 19 19" id="minus">
			<path d="M15.4895 8.3125H3.51055C2.8834 8.3125 2.375 8.84316 2.375 9.5C2.375 10.1568 2.8834 10.6875 3.51055 10.6875H15.4895C16.1166 10.6875 16.625 10.1568 16.625 9.5C16.625 8.84316 16.1166 8.3125 15.4895 8.3125Z"></path>
		</symbol>
	</g>
	<g id="aws">
		<path fill="#252f3e" d="M36.379 53.64c0 1.56.168 2.825.465 3.75.336.926.758 1.938 1.347 3.032.207.336.293.672.293.969 0 .418-.254.84-.8 1.261l-2.653 1.77c-.379.25-.758.379-1.093.379-.422 0-.844-.211-1.266-.59a13.28 13.28 0 0 1-1.516-1.98 34.153 34.153 0 0 1-1.304-2.485c-3.282 3.875-7.41 5.813-12.38 5.813-3.535 0-6.355-1.012-8.421-3.032-2.063-2.023-3.114-4.718-3.114-8.086 0-3.578 1.262-6.484 3.833-8.671 2.566-2.192 5.976-3.286 10.316-3.286 1.43 0 2.902.125 4.46.336 1.56.211 3.161.547 4.845.926v-3.074c0-3.2-.676-5.43-1.98-6.734C26.061 32.633 23.788 32 20.546 32c-1.473 0-2.988.168-4.547.547a33.416 33.416 0 0 0-4.547 1.433c-.676.293-1.18.461-1.473.547-.296.082-.507.125-.675.125-.59 0-.883-.422-.883-1.304v-2.063c0-.676.082-1.18.293-1.476.21-.293.59-.586 1.18-.883 1.472-.758 3.242-1.39 5.304-1.895 2.063-.547 4.254-.8 6.57-.8 5.008 0 8.672 1.136 11.032 3.41 2.316 2.273 3.492 5.726 3.492 10.359v13.64Zm-17.094 6.403c1.387 0 2.82-.254 4.336-.758 1.516-.508 2.863-1.433 4-2.695.672-.8 1.18-1.684 1.43-2.695.254-1.012.422-2.23.422-3.665v-1.765a34.401 34.401 0 0 0-3.871-.719 31.816 31.816 0 0 0-3.961-.25c-2.82 0-4.883.547-6.274 1.684-1.387 1.136-2.062 2.734-2.062 4.84 0 1.98.504 3.453 1.558 4.464 1.012 1.051 2.485 1.559 4.422 1.559Zm33.809 4.547c-.758 0-1.262-.125-1.598-.422-.34-.254-.633-.84-.887-1.64L40.715 29.98c-.25-.843-.38-1.39-.38-1.687 0-.672.337-1.05 1.013-1.05h4.125c.8 0 1.347.124 1.644.421.336.25.59.84.84 1.64l7.074 27.876 6.57-27.875c.208-.84.462-1.39.797-1.64.34-.255.93-.423 1.688-.423h3.367c.8 0 1.348.125 1.684.422.336.25.633.84.8 1.64l6.653 28.212 7.285-28.211c.25-.84.547-1.39.84-1.64.336-.255.887-.423 1.644-.423h3.914c.676 0 1.055.336 1.055 1.051 0 .21-.043.422-.086.676-.043.254-.125.59-.293 1.05L80.801 62.57c-.254.84-.547 1.387-.887 1.64-.336.255-.883.423-1.598.423h-3.62c-.801 0-1.348-.13-1.684-.422-.34-.297-.633-.844-.801-1.684l-6.527-27.16-6.485 27.117c-.21.844-.46 1.391-.8 1.684-.337.297-.926.422-1.684.422Zm54.105 1.137c-2.187 0-4.379-.254-6.484-.758-2.106-.504-3.746-1.055-4.84-1.684-.676-.379-1.137-.8-1.305-1.18a2.919 2.919 0 0 1-.254-1.18v-2.148c0-.882.336-1.304.97-1.304.25 0 .503.043.757.129.25.082.629.25 1.05.418a23.102 23.102 0 0 0 4.634 1.476c1.683.336 3.324.504 5.011.504 2.653 0 4.715-.465 6.145-1.39 1.433-.926 2.191-2.274 2.191-4 0-1.18-.379-2.145-1.136-2.946-.758-.8-2.192-1.516-4.254-2.191l-6.106-1.895c-3.074-.969-5.348-2.398-6.734-4.293-1.39-1.855-2.106-3.918-2.106-6.105 0-1.77.38-3.328 1.137-4.676a10.829 10.829 0 0 1 3.031-3.453c1.262-.965 2.696-1.684 4.38-2.188 1.683-.504 3.452-.715 5.304-.715.926 0 1.894.043 2.82.168.969.125 1.852.293 2.738.461.84.211 1.641.422 2.399.676.758.254 1.348.504 1.77.758.59.336 1.011.672 1.261 1.05.254.34.379.802.379 1.391v1.98c0 .884-.336 1.348-.969 1.348-.336 0-.883-.171-1.597-.507-2.403-1.094-5.098-1.641-8.086-1.641-2.399 0-4.293.379-5.598 1.18-1.309.797-1.98 2.02-1.98 3.746 0 1.18.421 2.191 1.261 2.988.844.8 2.403 1.602 4.633 2.316l5.98 1.895c3.032.969 5.22 2.316 6.524 4.043 1.305 1.727 1.938 3.707 1.938 5.895 0 1.812-.38 3.453-1.094 4.882-.758 1.434-1.77 2.696-3.074 3.707-1.305 1.051-2.864 1.809-4.672 2.36-1.895.586-3.875.883-6.024.883Zm0 0"/>
		<path fill="#f90" d="M118 73.348c-4.432.063-9.664 1.052-13.621 3.832-1.223.883-1.012 2.062.336 1.894 4.508-.547 14.44-1.726 16.21.547 1.77 2.23-1.976 11.62-3.663 15.79-.504 1.26.59 1.769 1.726.8 7.41-6.231 9.348-19.242 7.832-21.137-.757-.925-4.388-1.79-8.82-1.726zM1.63 75.859c-.927.116-1.347 1.236-.368 2.121 16.508 14.902 38.359 23.872 62.613 23.872 17.305 0 37.43-5.43 51.281-15.66 2.273-1.688.297-4.254-2.02-3.204-15.534 6.57-32.421 9.77-47.788 9.77-22.778 0-44.8-6.273-62.653-16.633-.39-.231-.755-.304-1.064-.266z"/>

	</g>
	<g id="css">
		<path fill="#1572B6" d="M18.814 114.123L8.76 1.352h110.48l-10.064 112.754-45.243 12.543-45.119-12.526z"/><path fill="#33A9DC" d="M64.001 117.062l36.559-10.136 8.601-96.354h-45.16v106.49z"/><path fill="#fff" d="M64.001 51.429h18.302l1.264-14.163H64.001V23.435h34.682l-.332 3.711-3.4 38.114h-30.95V51.429z"/><path fill="#EBEBEB" d="M64.083 87.349l-.061.018-15.403-4.159-.985-11.031H33.752l1.937 21.717 28.331 7.863.063-.018v-14.39z"/><path fill="#fff" d="M81.127 64.675l-1.666 18.522-15.426 4.164v14.39l28.354-7.858.208-2.337 2.406-26.881H81.127z"/><path fill="#EBEBEB" d="M64.048 23.435v13.831H30.64l-.277-3.108-.63-7.012-.331-3.711h34.646zm-.047 27.996v13.831H48.792l-.277-3.108-.631-7.012-.33-3.711h16.447z"/>
	</g>
	<g id="express">
		<path d="M126.67 98.44c-4.56 1.16-7.38.05-9.91-3.75-5.68-8.51-11.95-16.63-18-24.9-.78-1.07-1.59-2.12-2.6-3.45C89 76 81.85 85.2 75.14 94.77c-2.4 3.42-4.92 4.91-9.4 3.7l26.92-36.13L67.6 29.71c4.31-.84 7.29-.41 9.93 3.45 5.83 8.52 12.26 16.63 18.67 25.21 6.45-8.55 12.8-16.67 18.8-25.11 2.41-3.42 5-4.72 9.33-3.46-3.28 4.35-6.49 8.63-9.72 12.88-4.36 5.73-8.64 11.53-13.16 17.14-1.61 2-1.35 3.3.09 5.19C109.9 76 118.16 87.1 126.67 98.44zM1.33 61.74c.72-3.61 1.2-7.29 2.2-10.83 6-21.43 30.6-30.34 47.5-17.06C60.93 41.64 63.39 52.62 62.9 65H7.1c-.84 22.21 15.15 35.62 35.53 28.78 7.15-2.4 11.36-8 13.47-15 1.07-3.51 2.84-4.06 6.14-3.06-1.69 8.76-5.52 16.08-13.52 20.66-12 6.86-29.13 4.64-38.14-4.89C5.26 85.89 3 78.92 2 71.39c-.15-1.2-.46-2.38-.7-3.57q.03-3.04.03-6.08zm5.87-1.49h50.43c-.33-16.06-10.33-27.47-24-27.57-15-.12-25.78 11.02-26.43 27.57z"/>
	</g>
	<g id="html">
		<path fill="#E44D26" d="M19.037 113.876L9.032 1.661h109.936l-10.016 112.198-45.019 12.48z"/><path fill="#F16529" d="M64 116.8l36.378-10.086 8.559-95.878H64z"/><path fill="#EBEBEB" d="M64 52.455H45.788L44.53 38.361H64V24.599H29.489l.33 3.692 3.382 37.927H64zm0 35.743l-.061.017-15.327-4.14-.979-10.975H33.816l1.928 21.609 28.193 7.826.063-.017z"/><path fill="#fff" d="M63.952 52.455v13.763h16.947l-1.597 17.849-15.35 4.143v14.319l28.215-7.82.207-2.325 3.234-36.233.335-3.696h-3.708zm0-27.856v13.762h33.244l.276-3.092.628-6.978.329-3.692z"/>
	</g>
	<g id="javascript">
		<path fill="#F0DB4F" d="M1.408 1.408h125.184v125.185H1.408z"/>
		<path fill="#323330" d="M116.347 96.736c-.917-5.711-4.641-10.508-15.672-14.981-3.832-1.761-8.104-3.022-9.377-5.926-.452-1.69-.512-2.642-.226-3.665.821-3.32 4.784-4.355 7.925-3.403 2.023.678 3.938 2.237 5.093 4.724 5.402-3.498 5.391-3.475 9.163-5.879-1.381-2.141-2.118-3.129-3.022-4.045-3.249-3.629-7.676-5.498-14.756-5.355l-3.688.477c-3.534.893-6.902 2.748-8.877 5.235-5.926 6.724-4.236 18.492 2.975 23.335 7.104 5.332 17.54 6.545 18.873 11.531 1.297 6.104-4.486 8.08-10.234 7.378-4.236-.881-6.592-3.034-9.139-6.949-4.688 2.713-4.688 2.713-9.508 5.485 1.143 2.499 2.344 3.63 4.26 5.795 9.068 9.198 31.76 8.746 35.83-5.176.165-.478 1.261-3.666.38-8.581zM69.462 58.943H57.753l-.048 30.272c0 6.438.333 12.34-.714 14.149-1.713 3.558-6.152 3.117-8.175 2.427-2.059-1.012-3.106-2.451-4.319-4.485-.333-.584-.583-1.036-.667-1.071l-9.52 5.83c1.583 3.249 3.915 6.069 6.902 7.901 4.462 2.678 10.459 3.499 16.731 2.059 4.082-1.189 7.604-3.652 9.448-7.401 2.666-4.915 2.094-10.864 2.07-17.444.06-10.735.001-21.468.001-32.237z"/>
	</g>
	<g id="jest">    <path fill="#99425B" d="M124.129 63.02c0-7.692-5.828-14.165-13.652-16.012L128 .113H41.16l17.563 47.043c-7.578 1.996-13.164 8.356-13.164 15.903 0 5.546 3.058 10.464 7.703 13.496-1.832 2.367-3.953 4.55-6.356 6.62-4.523 3.848-9.539 6.805-14.957 8.766-4.89-2.996-7.008-8.285-5.094-13.02 7.457-2.07 12.88-8.394 12.88-15.827 0-9.133-8.192-16.532-18.22-16.532-10.066 0-18.253 7.434-18.253 16.57 0 4.513 2.035 8.653 5.297 11.61-.286.52-.57 1.035-.856 1.59C4.973 81.438 1.875 87.207.691 93.68c-2.363 12.941 1.508 23.336 10.84 29.215 5.258 3.293 11.047 4.957 17.282 4.957 10.714 0 21.597-4.883 32.109-9.618 7.5-3.363 15.242-6.879 22.863-8.578 2.813-.629 5.746-1 8.844-1.406 6.273-.813 12.754-1.664 18.582-4.734 6.805-3.586 11.45-9.579 12.797-16.457 1.015-5.29 0-10.614-2.61-15.274a15.35 15.35 0 002.73-8.765zm-7.945 0c0 5.14-4.606 9.32-10.27 9.32s-10.27-4.18-10.27-9.32c0-1.665.489-3.254 1.344-4.622.325-.52.735-1.035 1.14-1.48a8.517 8.517 0 011.427-1.219l.043-.039c.324-.222.691-.445 1.058-.664 0 0 .04 0 .04-.039.163-.074.327-.184.492-.258.039 0 .078-.039.12-.039.165-.07.368-.144.57-.219a8.78 8.78 0 00.571-.222c.04 0 .082-.04.121-.04.164-.034.328-.109.489-.144.043 0 .125-.039.164-.039.203-.035.367-.074.57-.11h.043l.61-.113c.042 0 .12 0 .163-.035.164 0 .325-.039.489-.039h.203c.203 0 .41-.035.652-.035h.531c.16 0 .286 0 .446.035h.082c.328.04.652.074.98.149 4.645.886 8.192 4.66 8.192 9.172zM52.527 7.508h64.102l-14.711 39.387c-.61.113-1.223.296-1.832.48l-15.484-28.66L69.074 47.19c-.613-.183-1.265-.296-1.914-.406zM81.664 59.8c-.773-3.477-2.73-6.582-5.5-8.875l8.438-15.457 8.515 15.789c-2.527 2.293-4.36 5.215-5.094 8.543zM61.25 53.96c.203-.04.367-.074.57-.113h.121c.164-.035.329-.035.489-.075h.164c.164 0 .285-.035.449-.035h1.59c.16 0 .285.035.406.035.082 0 .121 0 .203.04.164.035.285.035.45.074.038 0 .081 0 .163.035.204.039.407.074.57.113h.04c.164.035.328.07.488.145.043 0 .082.039.164.039.121.035.285.074.406.148.043 0 .082.035.125.035.16.075.325.114.489.188h.039c.203.07.367.144.531.258h.04c.163.074.327.183.491.257.04 0 .04.04.078.04.164.07.286.183.45.257l.043.035c.488.333.937.704 1.382 1.075l.043.035c.407.406.813.851 1.141 1.332 1.059 1.48 1.672 3.219 1.672 5.105 0 5.141-4.606 9.317-10.27 9.317s-10.27-4.176-10.27-9.317c-.042-4.328 3.259-7.988 7.743-9.023zm-40.102-.262c5.665 0 10.27 4.18 10.27 9.32 0 5.141-4.605 9.32-10.27 9.32-5.664 0-10.27-4.179-10.27-9.32 0-5.14 4.606-9.32 10.27-9.32zm94.79 32.067c-.895 4.73-4.118 8.875-8.844 11.351-4.442 2.332-9.903 3.07-15.649 3.809-3.136.406-6.437.851-9.617 1.554-8.476 1.887-16.625 5.586-24.531 9.133-10.106 4.551-19.645 8.84-28.484 8.84-4.606 0-8.723-1.183-12.633-3.66-8.965-5.621-8.52-16.16-7.457-21.93.976-5.402 3.707-10.468 6.316-15.312.16-.297.285-.555.445-.852.899.297 1.836.52 2.813.668-1.547 7.84 2.851 15.938 11.41 19.934l1.55.738 1.669-.555c7.133-2.293 13.734-6.027 19.562-11.02 3.301-2.812 6.114-5.843 8.477-9.136.937.149 1.875.188 2.812.188 8.477 0 15.606-5.29 17.645-12.391h6.844c2.039 7.137 9.171 12.39 17.648 12.39 3.383 0 6.52-.85 9.207-2.292 1.063 2.773 1.387 5.656.817 8.543zm0 0"/>
	</g>
	<g id="mongoDB">    <path fill-rule="evenodd" clip-rule="evenodd" fill="#439934" d="M88.038 42.812c1.605 4.643 2.761 9.383 3.141 14.296.472 6.095.256 12.147-1.029 18.142-.035.165-.109.32-.164.48-.403.001-.814-.049-1.208.012-3.329.523-6.655 1.065-9.981 1.604-3.438.557-6.881 1.092-10.313 1.687-1.216.21-2.721-.041-3.212 1.641-.014.046-.154.054-.235.08l.166-10.051-.169-24.252 1.602-.275c2.62-.429 5.24-.864 7.862-1.281 3.129-.497 6.261-.98 9.392-1.465 1.381-.215 2.764-.412 4.148-.618z"/><path fill-rule="evenodd" clip-rule="evenodd" fill="#45A538" d="M61.729 110.054c-1.69-1.453-3.439-2.842-5.059-4.37-8.717-8.222-15.093-17.899-18.233-29.566-.865-3.211-1.442-6.474-1.627-9.792-.13-2.322-.318-4.665-.154-6.975.437-6.144 1.325-12.229 3.127-18.147l.099-.138c.175.233.427.439.516.702 1.759 5.18 3.505 10.364 5.242 15.551 5.458 16.3 10.909 32.604 16.376 48.9.107.318.384.579.583.866l-.87 2.969z"/><path fill-rule="evenodd" clip-rule="evenodd" fill="#46A037" d="M88.038 42.812c-1.384.206-2.768.403-4.149.616-3.131.485-6.263.968-9.392 1.465-2.622.417-5.242.852-7.862 1.281l-1.602.275-.012-1.045c-.053-.859-.144-1.717-.154-2.576-.069-5.478-.112-10.956-.18-16.434-.042-3.429-.105-6.857-.175-10.285-.043-2.13-.089-4.261-.185-6.388-.052-1.143-.236-2.28-.311-3.423-.042-.657.016-1.319.029-1.979.817 1.583 1.616 3.178 2.456 4.749 1.327 2.484 3.441 4.314 5.344 6.311 7.523 7.892 12.864 17.068 16.193 27.433z"/><path fill-rule="evenodd" clip-rule="evenodd" fill="#409433" d="M65.036 80.753c.081-.026.222-.034.235-.08.491-1.682 1.996-1.431 3.212-1.641 3.432-.594 6.875-1.13 10.313-1.687 3.326-.539 6.652-1.081 9.981-1.604.394-.062.805-.011 1.208-.012-.622 2.22-1.112 4.488-1.901 6.647-.896 2.449-1.98 4.839-3.131 7.182a49.142 49.142 0 01-6.353 9.763c-1.919 2.308-4.058 4.441-6.202 6.548-1.185 1.165-2.582 2.114-3.882 3.161l-.337-.23-1.214-1.038-1.256-2.753a41.402 41.402 0 01-1.394-9.838l.023-.561.171-2.426c.057-.828.133-1.655.168-2.485.129-2.982.241-5.964.359-8.946z"/><path fill-rule="evenodd" clip-rule="evenodd" fill="#4FAA41" d="M65.036 80.753c-.118 2.982-.23 5.964-.357 8.947-.035.83-.111 1.657-.168 2.485l-.765.289c-1.699-5.002-3.399-9.951-5.062-14.913-2.75-8.209-5.467-16.431-8.213-24.642a4498.887 4498.887 0 00-6.7-19.867c-.105-.31-.407-.552-.617-.826l4.896-9.002c.168.292.39.565.496.879a6167.476 6167.476 0 016.768 20.118c2.916 8.73 5.814 17.467 8.728 26.198.116.349.308.671.491 1.062l.67-.78-.167 10.052z"/><path fill-rule="evenodd" clip-rule="evenodd" fill="#4AA73C" d="M43.155 32.227c.21.274.511.516.617.826a4498.887 4498.887 0 016.7 19.867c2.746 8.211 5.463 16.433 8.213 24.642 1.662 4.961 3.362 9.911 5.062 14.913l.765-.289-.171 2.426-.155.559c-.266 2.656-.49 5.318-.814 7.968-.163 1.328-.509 2.632-.772 3.947-.198-.287-.476-.548-.583-.866-5.467-16.297-10.918-32.6-16.376-48.9a3888.972 3888.972 0 00-5.242-15.551c-.089-.263-.34-.469-.516-.702l3.272-8.84z"/><path fill-rule="evenodd" clip-rule="evenodd" fill="#57AE47" d="M65.202 70.702l-.67.78c-.183-.391-.375-.714-.491-1.062-2.913-8.731-5.812-17.468-8.728-26.198a6167.476 6167.476 0 00-6.768-20.118c-.105-.314-.327-.588-.496-.879l6.055-7.965c.191.255.463.482.562.769 1.681 4.921 3.347 9.848 5.003 14.778 1.547 4.604 3.071 9.215 4.636 13.813.105.308.47.526.714.786l.012 1.045c.058 8.082.115 16.167.171 24.251z"/><path fill-rule="evenodd" clip-rule="evenodd" fill="#60B24F" d="M65.021 45.404c-.244-.26-.609-.478-.714-.786-1.565-4.598-3.089-9.209-4.636-13.813-1.656-4.93-3.322-9.856-5.003-14.778-.099-.287-.371-.514-.562-.769 1.969-1.928 3.877-3.925 5.925-5.764 1.821-1.634 3.285-3.386 3.352-5.968.003-.107.059-.214.145-.514l.519 1.306c-.013.661-.072 1.322-.029 1.979.075 1.143.259 2.28.311 3.423.096 2.127.142 4.258.185 6.388.069 3.428.132 6.856.175 10.285.067 5.478.111 10.956.18 16.434.008.861.098 1.718.152 2.577z"/><path fill-rule="evenodd" clip-rule="evenodd" fill="#A9AA88" d="M62.598 107.085c.263-1.315.609-2.62.772-3.947.325-2.649.548-5.312.814-7.968l.066-.01.066.011a41.402 41.402 0 001.394 9.838c-.176.232-.425.439-.518.701-.727 2.05-1.412 4.116-2.143 6.166-.1.28-.378.498-.574.744l-.747-2.566.87-2.969z"/><path fill-rule="evenodd" clip-rule="evenodd" fill="#B6B598" d="M62.476 112.621c.196-.246.475-.464.574-.744.731-2.05 1.417-4.115 2.143-6.166.093-.262.341-.469.518-.701l1.255 2.754c-.248.352-.59.669-.728 1.061l-2.404 7.059c-.099.283-.437.483-.663.722l-.695-3.985z"/><path fill-rule="evenodd" clip-rule="evenodd" fill="#C2C1A7" d="M63.171 116.605c.227-.238.564-.439.663-.722l2.404-7.059c.137-.391.48-.709.728-1.061l1.215 1.037c-.587.58-.913 1.25-.717 2.097l-.369 1.208c-.168.207-.411.387-.494.624-.839 2.403-1.64 4.819-2.485 7.222-.107.305-.404.544-.614.812-.109-1.387-.22-2.771-.331-4.158z"/><path fill-rule="evenodd" clip-rule="evenodd" fill="#CECDB7" d="M63.503 120.763c.209-.269.506-.508.614-.812.845-2.402 1.646-4.818 2.485-7.222.083-.236.325-.417.494-.624l-.509 5.545c-.136.157-.333.294-.398.477-.575 1.614-1.117 3.24-1.694 4.854-.119.333-.347.627-.525.938-.158-.207-.441-.407-.454-.623-.051-.841-.016-1.688-.013-2.533z"/><path fill-rule="evenodd" clip-rule="evenodd" fill="#DBDAC7" d="M63.969 123.919c.178-.312.406-.606.525-.938.578-1.613 1.119-3.239 1.694-4.854.065-.183.263-.319.398-.477l.012 3.64-1.218 3.124-1.411-.495z"/><path fill-rule="evenodd" clip-rule="evenodd" fill="#EBE9DC" d="M65.38 124.415l1.218-3.124.251 3.696-1.469-.572z"/><path fill-rule="evenodd" clip-rule="evenodd" fill="#CECDB7" d="M67.464 110.898c-.196-.847.129-1.518.717-2.097l.337.23-1.054 1.867z"/><path fill-rule="evenodd" clip-rule="evenodd" fill="#4FAA41" d="M64.316 95.172l-.066-.011-.066.01.155-.559-.023.56z"/>
	</g>
	<g id="mongoose"> <path style="fill:#850000;fill-opacity:1;fill-rule:nonzero;stroke:none" d="M69.953.309c-1.676.07-4.508.52-4.508.71 0 .079 1.996 1.079 2.149 1.079.14 0 2.457 1.156 2.972 1.476.672.43 1.153.82 1.012.82-.09 0-2.469-.921-3.371-1.308-.734-.309-3.785-1.219-5.27-1.57-.804-.188-1.144-.258-2.511-.508C58.41.64 56.039.618 55.008.957c-1.477.48-1.809 1.07-1.809 3.246 0 1.2.059 1.707.32 2.785.114.469.434 1.5.583 1.848.043.11.183.45.3.75.121.297.485 1.066.805 1.695 1.797 3.567 4.488 6.54 8.281 9.156 1.196.82 4.446 2.375 5.75 2.747.332.09.442.277.172.277-.3 0-3.05-.758-3.613-.996a9.982 9.982 0 0 0-.652-.262c-1.957-.789-4.457-2.414-6.524-4.262a21.38 21.38 0 0 1-5.312-7.257c-.793-1.79-1.332-3.875-1.465-5.692-.078-1.039-.16-1.289-.43-1.277-.09 0-.945-.031-1.887-.082-2.562-.11-6.062.172-9.527.77-6.625 1.128-13.773 3.734-21.129 7.706a94.93 94.93 0 0 0-3.625 2.067c-.14.082-.582.351-.984.601-.399.25-.871.528-1.043.637-.38.223-4.586 3.078-5.09 3.457-.188.137-.711.527-1.152.848C4.98 21.195.633 24.742.383 25.102c-.121.18.07.27.328.18.133-.052.473-.122.746-.16.281-.044 1.004-.231 1.605-.43.61-.192 1.266-.391 1.454-.442 1.488-.348 2.09-.469 2.96-.598.395-.05.977-.14 1.305-.191 4.078-.598 6.024-.746 7.84-.61 3.945.32 7.719.993 9.879 1.758 1.617.582 4.906 2.36 6.352 3.426.836.63 3.523 3.305 4.117 4.113.46.641.972 1.2 1.093 1.2.04 0 .09-2.04.102-4.524l.027-4.512 5.282-.03c4.156-.02 5.308.011 5.379.1.101.13.343.56 1.136 2.024.754 1.41 1.125 2.09 1.356 2.496.12.223.398.739.633 1.149.218.41.628 1.168.91 1.687.281.52.511.961.511.98 0 .09.414.63.485.63.039 0 .14-.153.21-.32.079-.18.29-.579.462-.88.18-.3.5-.886.722-1.296.223-.41.524-.98.684-1.25.441-.79.902-1.645 1.285-2.344A84.813 84.813 0 0 1 58.5 24.96c.129-.25.29-.512.34-.578.082-.09 1.265-.121 5.543-.102l5.43.031.03 8.817c.02 6.945.048 8.805.15 8.805.058-.012.46-.243.874-.532.582-.406.832-.656 1.102-1.117.613-1.047 2.351-2.695 3.515-3.336A16.556 16.556 0 0 1 80 35.254c1.605-.34 2.078-.39 5.723-.52 6.652-.23 7.636-.27 7.687-.32.031-.027-.058-.289-.191-.59-.14-.289-.38-.828-.551-1.187-.633-1.367-.633-1.825.031-2.496.45-.47 1.613-.88 3.613-1.278.329-.07.743-.16.91-.218.173-.051.383-.09.473-.09.254 0 2.25-.489 2.672-.649.29-.12 1.856-.46 3.723-.82.812-.16 2.922-.578 4.668-.93 1.105-.218 2.258-.449 2.558-.508.301-.058.735-.148.954-.187.222-.05.511-.113.652-.133.14-.027.844-.168 1.558-.316a33.704 33.704 0 0 1 1.614-.313c.504-.047 4.289-.957 5.16-1.238 1.387-.45 1.797-.629 2.672-1.215.941-.64 1.203-.988 2.136-2.848 1.036-2.066 1.184-2.414 1.477-3.285.45-1.386.422-1.914-.152-2.496-.403-.398-1.266-.808-1.895-.898-.472-.059-.535-.04-.765.21-.141.15-.262.329-.262.391 0 .09-.16.528-.61 1.606-.043.11-.132.379-.203.597-.058.223-.18.532-.25.7-.129.28-.14.23-.09-.547.051-.77.18-1.418.473-2.399.051-.187.121-.507.149-.707l.05-.36-1.043-.417c-1.085-.45-2.02-.84-2.558-1.082-.184-.066-.633-.246-1.004-.387-.383-.14-.844-.32-1.035-.41a23.9 23.9 0 0 0-1.055-.437c-.672-.262-3.02-1.059-5.02-1.688a458.117 458.117 0 0 0-4.011-1.21 36.162 36.162 0 0 1-1.406-.388c-.16-.043-.555-.152-.856-.23-1.766-.488-2.226-.61-2.86-.79a26.367 26.367 0 0 0-1.054-.28c-.191-.047-.71-.168-1.152-.278-.774-.191-4.016-.937-5.774-1.34l-1.254-.289c-.222-.05-.62-.129-.902-.18-.273-.05-.844-.16-1.258-.25-.41-.077-1.293-.25-1.957-.359-.66-.117-1.453-.257-1.754-.308-2.773-.5-2.96-.528-7.93-1.078-3.062-.348-7.18-.641-8.183-.59-.16 0-1.05.039-1.965.09zM58.348 5.23c2.652.86 5.23 2.028 6.996 3.168 1.406.907 3.152 2.356 3.625 3.004l.199.27-.379-.149c-.21-.09-.652-.28-.984-.441-1.766-.82-1.957-.887-1.957-.707 0 .047.41.707.902 1.445.504.75.902 1.41.902 1.47 0 .05-.187-.032-.422-.192-.902-.618-3.02-1.508-3.14-1.328-.031.05.62.878 1.457 1.847.82.969 1.504 1.797 1.504 1.86 0 .148-.16.128-.922-.153-.785-.277-.984-.308-.984-.117 0 .129 1.695 2.414 2.367 3.203.191.219.343.43.343.48 0 .239-2.351-1.288-4.015-2.605-2.38-1.898-4.68-4.445-5.89-6.55-.997-1.72-1.337-2.645-1.337-3.665 0-.597.028-.718.25-.93.13-.136.293-.25.352-.25.058 0 .562.153 1.133.34zm31.691 3.555c.961.172 2.277.399 2.91.512.633.11 1.406.238 1.707.289.301.059.73.137.953.187.22.051.653.141.954.211.992.22 1.234.27 2.859.649 1.746.41 2.129.488 2.66.597.453.09.902.262.902.34 0 .032-.328.223-.73.43-.824.41-.996.441-4.387.57-2.308.098-3.543.07-4.668-.11-2.27-.35-3.441-.987-4.355-2.366-.32-.469-.531-.61-1.266-.797-.27-.082-.683-.192-.902-.262-.223-.07-.602-.18-.844-.25-.723-.187-.312-.297 1.145-.297 1.003 0 1.707.067 3.062.297zm12.074 13.95a.54.54 0 0 1-.25 0c-.07-.032-.02-.051.121-.051.137 0 .188.02.13.05zm-.433.117c0 .05-.117.12-.27.152-.312.078-1.535.43-1.937.558-.141.051-.594.192-1.004.31-1.035.3-3.543 1.116-4.215 1.378-1.266.48-4.238 2.055-4.656 2.477-.625.609-.817 1.265-.723 2.523.027.531.098 1.2.16 1.488.121.63.05.801-.191.489-.242-.309-.754-1.426-.903-1.977-.082-.246-.171-.578-.222-.738-.18-.567-.11-1.239.172-1.645.379-.582 1.746-1.508 3.351-2.277.762-.371 2.98-1.13 5.02-1.727.41-.12.863-.261 1.004-.3 1.445-.489 4.414-.958 4.414-.711zm-31.746.671c-.032.028-.121.04-.192.008-.082-.027-.05-.058.059-.058.113-.012.172.02.133.05zm0 0" transform="translate(0 39)"/>
		<path style="fill:#850000;fill-opacity:1;fill-rule:nonzero;stroke:none" d="M48.883 42.832v6.988h5c3.754 0 5.027-.03 5.117-.12.152-.15.184-13.856.031-13.856-.05 0-.12.078-.152.168-.04.09-1.133 1.797-2.438 3.793-2.066 3.156-2.64 3.925-2.64 3.535 0-.07-3.422-5.41-4.297-6.7a3.725 3.725 0 0 1-.309-.527c-.082-.152-.18-.27-.23-.27-.043 0-.082 3.145-.082 6.989zm0 0" transform="translate(0 39)"/>
	</g>
	<g id="node">    <path fill="#83CD29" d="M112.771 30.334L68.674 4.729c-2.781-1.584-6.402-1.584-9.205 0L14.901 30.334C12.031 31.985 10 35.088 10 38.407v51.142c0 3.319 2.084 6.423 4.954 8.083l11.775 6.688c5.628 2.772 7.617 2.772 10.178 2.772 8.333 0 13.093-5.039 13.093-13.828v-50.49c0-.713-.371-1.774-1.071-1.774h-5.623C42.594 41 41 42.061 41 42.773v50.49c0 3.896-3.524 7.773-10.11 4.48L18.723 90.73c-.424-.23-.723-.693-.723-1.181V38.407c0-.482.555-.966.982-1.213l44.424-25.561c.415-.235 1.025-.235 1.439 0l43.882 25.555c.42.253.272.722.272 1.219v51.142c0 .488.183.963-.232 1.198l-44.086 25.576c-.378.227-.847.227-1.261 0l-11.307-6.749c-.341-.198-.746-.269-1.073-.086-3.146 1.783-3.726 2.02-6.677 3.043-.726.253-1.797.692.41 1.929l14.798 8.754a9.294 9.294 0 004.647 1.246c1.642 0 3.25-.426 4.667-1.246l43.885-25.582c2.87-1.672 4.23-4.764 4.23-8.083V38.407c0-3.319-1.36-6.414-4.229-8.073zM77.91 81.445c-11.726 0-14.309-3.235-15.17-9.066-.1-.628-.633-1.379-1.272-1.379h-5.731c-.709 0-1.279.86-1.279 1.566 0 7.466 4.059 16.512 23.453 16.512 14.039 0 22.088-5.455 22.088-15.109 0-9.572-6.467-12.084-20.082-13.886-13.762-1.819-15.16-2.738-15.16-5.962 0-2.658 1.184-6.203 11.374-6.203 9.105 0 12.461 1.954 13.842 8.091.118.577.645.991 1.24.991h5.754c.354 0 .692-.143.94-.396.24-.272.367-.613.335-.979-.891-10.568-7.912-15.493-22.112-15.493-12.631 0-20.166 5.334-20.166 14.275 0 9.698 7.497 12.378 19.622 13.577 14.505 1.422 15.633 3.542 15.633 6.395 0 4.955-3.978 7.066-13.309 7.066z"/>
	</g>
	<g id="postgres">    <path d="M93.809 92.112c.785-6.533.55-7.492 5.416-6.433l1.235.108c3.742.17 8.637-.602 11.513-1.938 6.191-2.873 9.861-7.668 3.758-6.409-13.924 2.873-14.881-1.842-14.881-1.842 14.703-21.815 20.849-49.508 15.543-56.287-14.47-18.489-39.517-9.746-39.936-9.52l-.134.025c-2.751-.571-5.83-.912-9.289-.968-6.301-.104-11.082 1.652-14.709 4.402 0 0-44.683-18.409-42.604 23.151.442 8.841 12.672 66.898 27.26 49.362 5.332-6.412 10.484-11.834 10.484-11.834 2.558 1.699 5.622 2.567 8.834 2.255l.249-.212c-.078.796-.044 1.575.099 2.497-3.757 4.199-2.653 4.936-10.166 6.482-7.602 1.566-3.136 4.355-.221 5.084 3.535.884 11.712 2.136 17.238-5.598l-.22.882c1.474 1.18 1.375 8.477 1.583 13.69.209 5.214.558 10.079 1.621 12.948 1.063 2.868 2.317 10.256 12.191 8.14 8.252-1.764 14.561-4.309 15.136-27.985"/><path d="M75.458 125.256c-4.367 0-7.211-1.689-8.938-3.32-2.607-2.46-3.641-5.629-4.259-7.522l-.267-.79c-1.244-3.358-1.666-8.193-1.916-14.419-.038-.935-.064-1.898-.093-2.919-.021-.747-.047-1.684-.085-2.664a18.8 18.8 0 01-4.962 1.568c-3.079.526-6.389.356-9.84-.507-2.435-.609-4.965-1.871-6.407-3.82-4.203 3.681-8.212 3.182-10.396 2.453-3.853-1.285-7.301-4.896-10.542-11.037-2.309-4.375-4.542-10.075-6.638-16.943-3.65-11.96-5.969-24.557-6.175-28.693C4.292 23.698 7.777 14.44 15.296 9.129 27.157.751 45.128 5.678 51.68 7.915c4.402-2.653 9.581-3.944 15.433-3.851 3.143.051 6.136.327 8.916.823 2.9-.912 8.628-2.221 15.185-2.139 12.081.144 22.092 4.852 28.949 13.615 4.894 6.252 2.474 19.381.597 26.651-2.642 10.226-7.271 21.102-12.957 30.57 1.544.011 3.781-.174 6.961-.831 6.274-1.295 8.109 2.069 8.607 3.575 1.995 6.042-6.677 10.608-9.382 11.864-3.466 1.609-9.117 2.589-13.745 2.377l-.202-.013-1.216-.107-.12 1.014-.116.991c-.311 11.999-2.025 19.598-5.552 24.619-3.697 5.264-8.835 6.739-13.361 7.709-1.544.33-2.947.474-4.219.474zm-9.19-43.671c2.819 2.256 3.066 6.501 3.287 14.434.028.99.054 1.927.089 2.802.106 2.65.355 8.855 1.327 11.477.137.371.26.747.39 1.146 1.083 3.316 1.626 4.979 6.309 3.978 3.931-.843 5.952-1.599 7.534-3.851 2.299-3.274 3.585-9.86 3.821-19.575l4.783.116-4.75-.57.14-1.186c.455-3.91.783-6.734 3.396-8.602 2.097-1.498 4.486-1.353 6.389-1.01-2.091-1.58-2.669-3.433-2.823-4.193l-.399-1.965 1.121-1.663c6.457-9.58 11.781-21.354 14.609-32.304 2.906-11.251 2.02-17.226 1.134-18.356-11.729-14.987-32.068-8.799-34.192-8.097l-.359.194-1.8.335-.922-.191c-2.542-.528-5.366-.82-8.393-.869-4.756-.08-8.593 1.044-11.739 3.431l-2.183 1.655-2.533-1.043c-5.412-2.213-21.308-6.662-29.696-.721-4.656 3.298-6.777 9.76-6.305 19.207.156 3.119 2.275 14.926 5.771 26.377 4.831 15.825 9.221 21.082 11.054 21.693.32.108 1.15-.537 1.976-1.529a270.708 270.708 0 0110.694-12.07l2.77-2.915 3.349 2.225c1.35.897 2.839 1.406 4.368 1.502l7.987-6.812-1.157 11.808c-.026.265-.039.626.065 1.296l.348 2.238-1.51 1.688-.174.196 4.388 2.025 1.836-2.301z"/><path fill="#336791" d="M115.731 77.44c-13.925 2.873-14.882-1.842-14.882-1.842 14.703-21.816 20.849-49.51 15.545-56.287C101.924.823 76.875 9.566 76.457 9.793l-.135.024c-2.751-.571-5.83-.911-9.291-.967-6.301-.103-11.08 1.652-14.707 4.402 0 0-44.684-18.408-42.606 23.151.442 8.842 12.672 66.899 27.26 49.363 5.332-6.412 10.483-11.834 10.483-11.834 2.559 1.699 5.622 2.567 8.833 2.255l.25-.212c-.078.796-.042 1.575.1 2.497-3.758 4.199-2.654 4.936-10.167 6.482-7.602 1.566-3.136 4.355-.22 5.084 3.534.884 11.712 2.136 17.237-5.598l-.221.882c1.473 1.18 2.507 7.672 2.334 13.557-.174 5.885-.29 9.926.871 13.082 1.16 3.156 2.316 10.256 12.192 8.14 8.252-1.768 12.528-6.351 13.124-13.995.422-5.435 1.377-4.631 1.438-9.49l.767-2.3c.884-7.367.14-9.743 5.225-8.638l1.235.108c3.742.17 8.639-.602 11.514-1.938 6.19-2.871 9.861-7.667 3.758-6.408z"/><path fill="#fff" d="M75.957 122.307c-8.232 0-10.84-6.519-11.907-9.185-1.562-3.907-1.899-19.069-1.551-31.503a1.59 1.59 0 011.64-1.55 1.594 1.594 0 011.55 1.639c-.401 14.341.168 27.337 1.324 30.229 1.804 4.509 4.54 8.453 12.275 6.796 7.343-1.575 10.093-4.359 11.318-11.46.94-5.449 2.799-20.951 3.028-24.01a1.593 1.593 0 011.71-1.472 1.597 1.597 0 011.472 1.71c-.239 3.185-2.089 18.657-3.065 24.315-1.446 8.387-5.185 12.191-13.794 14.037-1.463.313-2.792.453-4 .454zM31.321 90.466a6.71 6.71 0 01-2.116-.35c-5.347-1.784-10.44-10.492-15.138-25.885-3.576-11.717-5.842-23.947-6.041-27.922-.589-11.784 2.445-20.121 9.02-24.778 13.007-9.216 34.888-.44 35.813-.062a1.596 1.596 0 01-1.207 2.955c-.211-.086-21.193-8.492-32.768-.285-5.622 3.986-8.203 11.392-7.672 22.011.167 3.349 2.284 15.285 5.906 27.149 4.194 13.742 8.967 22.413 13.096 23.79.648.216 2.62.873 5.439-2.517A245.272 245.272 0 0145.88 73.046a1.596 1.596 0 012.304 2.208c-.048.05-4.847 5.067-10.077 11.359-2.477 2.979-4.851 3.853-6.786 3.853zm69.429-13.445a1.596 1.596 0 01-1.322-2.487c14.863-22.055 20.08-48.704 15.612-54.414-5.624-7.186-13.565-10.939-23.604-11.156-7.433-.16-13.341 1.738-14.307 2.069l-.243.099c-.971.305-1.716-.227-1.997-.849a1.6 1.6 0 01.631-2.025c.046-.027.192-.089.429-.176l-.021.006.021-.007c1.641-.601 7.639-2.4 15.068-2.315 11.108.118 20.284 4.401 26.534 12.388 2.957 3.779 2.964 12.485.019 23.887-3.002 11.625-8.651 24.118-15.497 34.277-.306.457-.81.703-1.323.703zm.76 10.21c-2.538 0-4.813-.358-6.175-1.174-1.4-.839-1.667-1.979-1.702-2.584-.382-6.71 3.32-7.878 5.208-8.411-.263-.398-.637-.866-1.024-1.349-1.101-1.376-2.609-3.26-3.771-6.078-.182-.44-.752-1.463-1.412-2.648-3.579-6.418-11.026-19.773-6.242-26.612 2.214-3.165 6.623-4.411 13.119-3.716C97.6 28.837 88.5 10.625 66.907 10.271c-6.494-.108-11.82 1.889-15.822 5.93-8.96 9.049-8.636 25.422-8.631 25.586a1.595 1.595 0 11-3.19.084c-.02-.727-.354-17.909 9.554-27.916C53.455 9.272 59.559 6.96 66.96 7.081c13.814.227 22.706 7.25 27.732 13.101 5.479 6.377 8.165 13.411 8.386 15.759.165 1.746-1.088 2.095-1.341 2.147l-.576.013c-6.375-1.021-10.465-.312-12.156 2.104-3.639 5.201 3.406 17.834 6.414 23.229.768 1.376 1.322 2.371 1.576 2.985.988 2.396 2.277 4.006 3.312 5.3.911 1.138 1.7 2.125 1.982 3.283.131.23 1.99 2.98 13.021.703 2.765-.57 4.423-.083 4.93 1.45.997 3.015-4.597 6.532-7.694 7.97-2.775 1.29-7.204 2.106-11.036 2.106zm-4.696-4.021c.35.353 2.101.962 5.727.806 3.224-.138 6.624-.839 8.664-1.786 2.609-1.212 4.351-2.567 5.253-3.492l-.5.092c-7.053 1.456-12.042 1.262-14.828-.577a6.162 6.162 0 01-.54-.401c-.302.119-.581.197-.78.253-1.58.443-3.214.902-2.996 5.105zm-45.562 8.915c-1.752 0-3.596-.239-5.479-.71-1.951-.488-5.24-1.957-5.19-4.37.057-2.707 3.994-3.519 5.476-3.824 5.354-1.103 5.703-1.545 7.376-3.67.488-.619 1.095-1.39 1.923-2.314 1.229-1.376 2.572-2.073 3.992-2.073.989 0 1.8.335 2.336.558 1.708.708 3.133 2.42 3.719 4.467.529 1.847.276 3.625-.71 5.006-3.237 4.533-7.886 6.93-13.443 6.93zm-7.222-4.943c.481.372 1.445.869 2.518 1.137 1.631.408 3.213.615 4.705.615 4.546 0 8.196-1.882 10.847-5.594.553-.774.387-1.757.239-2.274-.31-1.083-1.08-2.068-1.873-2.397-.43-.178-.787-.314-1.115-.314-.176 0-.712 0-1.614 1.009a41.146 41.146 0 00-1.794 2.162c-2.084 2.646-3.039 3.544-9.239 4.821-1.513.31-2.289.626-2.674.835zm12.269-7.36a1.596 1.596 0 01-1.575-1.354 8.218 8.218 0 01-.08-.799c-4.064-.076-7.985-1.82-10.962-4.926-3.764-3.927-5.477-9.368-4.699-14.927.845-6.037.529-11.366.359-14.229-.047-.796-.081-1.371-.079-1.769.003-.505.013-1.844 4.489-4.113 1.592-.807 4.784-2.215 8.271-2.576 5.777-.597 9.585 1.976 10.725 7.246 3.077 14.228.244 20.521-1.825 25.117-.385.856-.749 1.664-1.04 2.447l-.257.69c-1.093 2.931-2.038 5.463-1.748 7.354a1.595 1.595 0 01-1.335 1.819l-.244.02zM42.464 42.26l.062 1.139c.176 2.974.504 8.508-.384 14.86-.641 4.585.759 9.06 3.843 12.276 2.437 2.542 5.644 3.945 8.94 3.945h.068c.369-1.555.982-3.197 1.642-4.966l.255-.686c.329-.884.714-1.74 1.122-2.646 1.991-4.424 4.47-9.931 1.615-23.132-.565-2.615-1.936-4.128-4.189-4.627-4.628-1.022-11.525 2.459-12.974 3.837zm9.63-.677c-.08.564 1.033 2.07 2.485 2.271 1.449.203 2.689-.975 2.768-1.539.079-.564-1.033-1.186-2.485-1.388-1.451-.202-2.691.092-2.768.656zm2.818 2.826l-.407-.028c-.9-.125-1.81-.692-2.433-1.518-.219-.29-.576-.852-.505-1.354.101-.736.999-1.177 2.4-1.177.313 0 .639.023.967.069.766.106 1.477.327 2.002.62.91.508.977 1.075.936 1.368-.112.813-1.405 2.02-2.96 2.02zm-2.289-2.732c.045.348.907 1.496 2.029 1.651l.261.018c1.036 0 1.81-.815 1.901-1.082-.096-.182-.762-.634-2.025-.81a5.823 5.823 0 00-.821-.059c-.812 0-1.243.183-1.345.282zm43.605-1.245c.079.564-1.033 2.07-2.484 2.272-1.45.202-2.691-.975-2.771-1.539-.076-.564 1.036-1.187 2.486-1.388 1.45-.203 2.689.092 2.769.655zm-2.819 2.56c-1.396 0-2.601-1.086-2.7-1.791-.115-.846 1.278-1.489 2.712-1.688.316-.044.629-.066.93-.066 1.238 0 2.058.363 2.14.949.053.379-.238.964-.739 1.492-.331.347-1.026.948-1.973 1.079l-.37.025zm.943-3.013c-.276 0-.564.021-.856.061-1.441.201-2.301.779-2.259 1.089.048.341.968 1.332 2.173 1.332l.297-.021c.787-.109 1.378-.623 1.66-.919.443-.465.619-.903.598-1.052-.028-.198-.56-.49-1.613-.49zm3.965 32.843a1.594 1.594 0 01-1.324-2.483c3.398-5.075 2.776-10.25 2.175-15.255-.257-2.132-.521-4.337-.453-6.453.07-2.177.347-3.973.614-5.71.317-2.058.617-4.002.493-6.31a1.595 1.595 0 113.186-.172c.142 2.638-.197 4.838-.525 6.967-.253 1.643-.515 3.342-.578 5.327-.061 1.874.178 3.864.431 5.97.64 5.322 1.365 11.354-2.691 17.411a1.596 1.596 0 01-1.328.708z"/>
	</g>
	<g id="react"><g fill="#61DAFB"><circle cx="64" cy="64" r="11.4"/>
		<path d="M107.3 45.2c-2.2-.8-4.5-1.6-6.9-2.3.6-2.4 1.1-4.8 1.5-7.1 2.1-13.2-.2-22.5-6.6-26.1-1.9-1.1-4-1.6-6.4-1.6-7 0-15.9 5.2-24.9 13.9-9-8.7-17.9-13.9-24.9-13.9-2.4 0-4.5.5-6.4 1.6-6.4 3.7-8.7 13-6.6 26.1.4 2.3.9 4.7 1.5 7.1-2.4.7-4.7 1.4-6.9 2.3C8.2 50 1.4 56.6 1.4 64s6.9 14 19.3 18.8c2.2.8 4.5 1.6 6.9 2.3-.6 2.4-1.1 4.8-1.5 7.1-2.1 13.2.2 22.5 6.6 26.1 1.9 1.1 4 1.6 6.4 1.6 7.1 0 16-5.2 24.9-13.9 9 8.7 17.9 13.9 24.9 13.9 2.4 0 4.5-.5 6.4-1.6 6.4-3.7 8.7-13 6.6-26.1-.4-2.3-.9-4.7-1.5-7.1 2.4-.7 4.7-1.4 6.9-2.3 12.5-4.8 19.3-11.4 19.3-18.8s-6.8-14-19.3-18.8zM92.5 14.7c4.1 2.4 5.5 9.8 3.8 20.3-.3 2.1-.8 4.3-1.4 6.6-5.2-1.2-10.7-2-16.5-2.5-3.4-4.8-6.9-9.1-10.4-13 7.4-7.3 14.9-12.3 21-12.3 1.3 0 2.5.3 3.5.9zM81.3 74c-1.8 3.2-3.9 6.4-6.1 9.6-3.7.3-7.4.4-11.2.4-3.9 0-7.6-.1-11.2-.4-2.2-3.2-4.2-6.4-6-9.6-1.9-3.3-3.7-6.7-5.3-10 1.6-3.3 3.4-6.7 5.3-10 1.8-3.2 3.9-6.4 6.1-9.6 3.7-.3 7.4-.4 11.2-.4 3.9 0 7.6.1 11.2.4 2.2 3.2 4.2 6.4 6 9.6 1.9 3.3 3.7 6.7 5.3 10-1.7 3.3-3.4 6.6-5.3 10zm8.3-3.3c1.5 3.5 2.7 6.9 3.8 10.3-3.4.8-7 1.4-10.8 1.9 1.2-1.9 2.5-3.9 3.6-6 1.2-2.1 2.3-4.2 3.4-6.2zM64 97.8c-2.4-2.6-4.7-5.4-6.9-8.3 2.3.1 4.6.2 6.9.2 2.3 0 4.6-.1 6.9-.2-2.2 2.9-4.5 5.7-6.9 8.3zm-18.6-15c-3.8-.5-7.4-1.1-10.8-1.9 1.1-3.3 2.3-6.8 3.8-10.3 1.1 2 2.2 4.1 3.4 6.1 1.2 2.2 2.4 4.1 3.6 6.1zm-7-25.5c-1.5-3.5-2.7-6.9-3.8-10.3 3.4-.8 7-1.4 10.8-1.9-1.2 1.9-2.5 3.9-3.6 6-1.2 2.1-2.3 4.2-3.4 6.2zM64 30.2c2.4 2.6 4.7 5.4 6.9 8.3-2.3-.1-4.6-.2-6.9-.2-2.3 0-4.6.1-6.9.2 2.2-2.9 4.5-5.7 6.9-8.3zm22.2 21l-3.6-6c3.8.5 7.4 1.1 10.8 1.9-1.1 3.3-2.3 6.8-3.8 10.3-1.1-2.1-2.2-4.2-3.4-6.2zM31.7 35c-1.7-10.5-.3-17.9 3.8-20.3 1-.6 2.2-.9 3.5-.9 6 0 13.5 4.9 21 12.3-3.5 3.8-7 8.2-10.4 13-5.8.5-11.3 1.4-16.5 2.5-.6-2.3-1-4.5-1.4-6.6zM7 64c0-4.7 5.7-9.7 15.7-13.4 2-.8 4.2-1.5 6.4-2.1 1.6 5 3.6 10.3 6 15.6-2.4 5.3-4.5 10.5-6 15.5C15.3 75.6 7 69.6 7 64zm28.5 49.3c-4.1-2.4-5.5-9.8-3.8-20.3.3-2.1.8-4.3 1.4-6.6 5.2 1.2 10.7 2 16.5 2.5 3.4 4.8 6.9 9.1 10.4 13-7.4 7.3-14.9 12.3-21 12.3-1.3 0-2.5-.3-3.5-.9zM96.3 93c1.7 10.5.3 17.9-3.8 20.3-1 .6-2.2.9-3.5.9-6 0-13.5-4.9-21-12.3 3.5-3.8 7-8.2 10.4-13 5.8-.5 11.3-1.4 16.5-2.5.6 2.3 1 4.5 1.4 6.6zm9-15.6c-2 .8-4.2 1.5-6.4 2.1-1.6-5-3.6-10.3-6-15.6 2.4-5.3 4.5-10.5 6-15.5 13.8 4 22.1 10 22.1 15.6 0 4.7-5.8 9.7-15.7 13.4z"/></g>
	</g>
	<g id="redux">    <path fill="#764abc" d="M88.69 88.11c-9 18.4-24.76 30.78-45.61 34.85a39.73 39.73 0 0 1-9.77 1.14c-12 0-23-5-28.34-13.19C-2.2 100-4.64 76.87 19 59.76c.48 2.61 1.46 6.19 2.11 8.31A38.24 38.24 0 0 0 10 81.1c-4.4 8.64-3.91 17.27 1.3 25.25 3.6 5.38 9.3 8.65 16.63 9.65a44 44 0 0 0 26.55-5c12.71-6.68 21.18-14.66 26.72-25.57a9.32 9.32 0 0 1-2.61-6A9.12 9.12 0 0 1 87.37 70h.34a9.15 9.15 0 0 1 1 18.25zm28.67-20.2c12.21 13.84 12.54 30.13 7.82 39.58-4.4 8.63-16 17.27-31.6 17.27a50.48 50.48 0 0 1-21-5.05c2.29-1.63 5.54-4.24 7.33-5.87a41.54 41.54 0 0 0 16 3.42c10.1 0 17.75-4.72 22.31-13.35 2.93-5.7 3.1-12.38.33-19.22a43.61 43.61 0 0 0-17.27-20.85 62 62 0 0 0-34.74-10.59h-2.93a9.21 9.21 0 0 1-8 5.54h-.31a9.13 9.13 0 0 1-.3-18.25h.33a9 9 0 0 1 8 4.89h2.61c20.8 0 39.06 7.98 51.42 22.48zm-82.75 23a7.31 7.31 0 0 1 1.14-4.73c-9.12-15.8-14-35.83-6.51-56.68C34.61 13.83 48.13 3.24 62.79 3.24c15.64 0 31.93 13.69 33.88 40.07-2.44-.81-6-2-8.14-2.44-.53-8.63-7.82-30.13-25.09-29.81-6.19.17-15.31 3.1-20 9.12a43.69 43.69 0 0 0-9.64 25.25 59.61 59.61 0 0 0 8.47 36.16 2.75 2.75 0 0 1 1.14-.16h.32a9.121 9.121 0 0 1 .33 18.24h-.33a9.16 9.16 0 0 1-9.12-8.79z"/>
	</g>
	<g id="styled"><path d="M31.2591 0.25L30.9888 1.64963C30.5708 4.30212 30.7221 5.06099 31.8682 6.04539L32.9747 6.95461L31.8286 12.0305C31.1438 15.0588 30.3041 17.5968 29.7707 18.4308C29.313 19.1503 28.7796 20.2099 28.6642 20.7791C28.4732 21.4592 27.8245 22.1429 26.8334 22.7478C25.9576 23.2418 24.2385 24.5663 23.0203 25.6294C22.0472 26.4993 21.3769 27.0326 21.0129 27.2617L19.8235 28.196C19.4415 28.8046 19.2253 29.295 19.1424 29.6672C19.0595 30.0503 19.1063 30.3044 19.2289 30.4905C19.3478 30.6695 19.5532 30.7948 19.8343 30.8736C20.1671 30.951 20.5097 30.9788 20.8507 30.9559C21.6222 30.9035 22.3858 30.7691 23.1284 30.555C23.3807 30.487 23.5789 30.4225 23.7519 30.3653C24.0186 30.0395 24.6349 29.4238 25.7269 28.3535C28.6246 25.5149 29.731 23.9613 28.5885 24.3802C28.1669 24.5305 28.3579 24.1511 29.0823 23.3922C30.6104 21.9138 31.4862 19.6801 33.317 12.6748C34.7659 7.14433 34.7659 7.06558 35.8327 7.06558C36.3336 7.06558 37.75 7.15149 37.75 7.15149V0.25H34.4992H31.2591ZM18.4216 12.0806C17.3692 12.0735 15.1058 13.6664 8.33025 19.1611C8.03832 19.8519 8.01309 20.328 8.14644 20.6359C8.23294 20.8471 8.39152 20.9938 8.61137 21.1012C8.82761 21.2086 9.10873 21.2731 9.41867 21.2981C10.035 21.3518 10.763 21.2552 11.3504 21.1406L11.7469 21.0511C11.8826 20.8704 12.0608 20.7254 12.2659 20.6287C12.6839 20.3996 14.4391 18.8103 16.1943 17.1064C19.2829 13.9993 20.0073 12.5961 18.7495 12.1415C18.6463 12.1007 18.5326 12.08 18.4216 12.0806ZM26.336 14.2391C25.4098 14.2642 23.7411 15.3309 20.8831 17.5968C19.4487 18.753 18.5405 19.3759 18.0539 19.5047L16.1654 20.9867C15.4554 22.2753 15.3509 23.0736 15.5383 23.5139C15.5852 23.6225 15.6533 23.7208 15.7387 23.8031C15.8241 23.8855 15.925 23.9502 16.0357 23.9936C16.311 24.1015 16.6046 24.1562 16.9006 24.1546C17.608 24.1471 18.3112 24.0448 18.991 23.8504C19.3453 23.7559 19.6952 23.6461 20.0398 23.521L20.1443 23.4781L20.3353 23.3779C20.6957 22.9161 21.5246 22.0462 22.5626 21.044C25.8423 17.9011 27.5181 15.6674 27.1758 14.8333C27.0208 14.4288 26.7541 14.2248 26.336 14.2391ZM17.5998 18.1051C17.3331 18.1337 16.7349 18.5919 15.6573 19.5298C14.1003 20.8972 12.4028 21.6847 11.8154 21.3339C11.6788 21.3645 11.5419 21.3932 11.4045 21.4198C10.8062 21.5379 10.0602 21.6346 9.39344 21.5809C9.07929 21.562 8.77137 21.4855 8.48523 21.3554C8.21533 21.2328 7.99994 21.0164 7.87975 20.7468C7.7464 20.4247 7.7464 20.0238 7.89777 19.5119L5.55514 21.4234L0.253605 25.7798V32.8424L17.6251 19.2506C17.6217 19.1018 17.6411 18.9533 17.6827 18.8103C17.8161 18.3306 17.8089 18.0872 17.5998 18.1087V18.1051ZM25.0746 20.3925C24.8115 20.3925 24.3718 20.7612 23.669 21.5021C22.714 22.5152 21.2111 23.496 20.4146 23.6964L20.292 23.7609C20.1613 23.8145 20.0291 23.8646 19.8956 23.9112C19.6794 23.9828 19.3982 24.0687 19.0739 24.1546C18.4252 24.33 17.6179 24.4911 16.897 24.4732C16.5572 24.4728 16.2207 24.4072 15.9059 24.2799C15.6093 24.1585 15.3716 23.9275 15.2428 23.6356C15.0338 23.138 15.1167 22.44 15.5744 21.4485L0.25 33.4366V37.75H6.98234L21.2615 26.6103C21.6327 26.2022 22.1914 25.6438 22.9446 24.9457C24.9629 23.0879 25.4206 22.4472 25.4206 21.4986C25.4206 20.7612 25.3377 20.3889 25.0746 20.3889V20.3925ZM28.4732 27.3727L27.2514 28.5826C26.5667 29.2269 25.3449 30.0216 24.5088 30.3617L24.343 30.4333L24.3322 30.4512L24.2961 30.487C24.2637 30.512 24.2493 30.5156 24.2241 30.5263C23.8903 30.6518 23.5512 30.7629 23.2077 30.8592C22.4441 31.08 21.6586 31.218 20.8651 31.2709C20.4899 31.2948 20.1132 31.2622 19.7478 31.1743C19.4307 31.1049 19.1508 30.9213 18.9622 30.6588C18.7892 30.3939 18.7387 30.0395 18.836 29.6028C18.9134 29.2919 19.0284 28.9914 19.1784 28.7079L7.6563 37.75H22.9807L24.8115 35.6667C27.3271 32.7529 28.4732 30.6695 28.4732 28.8869V27.3727Z" fill="pink"/>
	</g>
	<g id="typescript"><path fill="#fff" d="M22.67 47h99.67v73.67H22.67z"/>
		<path  fill="#007acc" d="M1.5 63.91v62.5h125v-125H1.5zm100.73-5a15.56 15.56 0 017.82 4.5 20.58 20.58 0 013 4c0 .16-5.4 3.81-8.69 5.85-.12.08-.6-.44-1.13-1.23a7.09 7.09 0 00-5.87-3.53c-3.79-.26-6.23 1.73-6.21 5a4.58 4.58 0 00.54 2.34c.83 1.73 2.38 2.76 7.24 4.86 8.95 3.85 12.78 6.39 15.16 10 2.66 4 3.25 10.46 1.45 15.24-2 5.2-6.9 8.73-13.83 9.9a38.32 38.32 0 01-9.52-.1 23 23 0 01-12.72-6.63c-1.15-1.27-3.39-4.58-3.25-4.82a9.34 9.34 0 011.15-.73L82 101l3.59-2.08.75 1.11a16.78 16.78 0 004.74 4.54c4 2.1 9.46 1.81 12.16-.62a5.43 5.43 0 00.69-6.92c-1-1.39-3-2.56-8.59-5-6.45-2.78-9.23-4.5-11.77-7.24a16.48 16.48 0 01-3.43-6.25 25 25 0 01-.22-8c1.33-6.23 6-10.58 12.82-11.87a31.66 31.66 0 019.49.26zm-29.34 5.24v5.12H56.66v46.23H45.15V69.26H28.88v-5a49.19 49.19 0 01.12-5.17C29.08 59 39 59 51 59h21.83z"/>
	</g>
	<g id="backArrow">
		<path d="M26.105,21.891c-0.229,0-0.439-0.131-0.529-0.346l0,0c-0.066-0.156-1.716-3.857-7.885-4.59
		c-1.285-0.156-2.824-0.236-4.693-0.25v4.613c0,0.213-0.115,0.406-0.304,0.508c-0.188,0.098-0.413,0.084-0.588-0.033L0.254,13.815
		C0.094,13.708,0,13.528,0,13.339c0-0.191,0.094-0.365,0.254-0.477l11.857-7.979c0.175-0.121,0.398-0.129,0.588-0.029
		c0.19,0.102,0.303,0.295,0.303,0.502v4.293c2.578,0.336,13.674,2.33,13.674,11.674c0,0.271-0.191,0.508-0.459,0.562
		C26.18,21.891,26.141,21.891,26.105,21.891z"/>
	</g>
</svg>
